<svg xmlns="http://www.w3.org/2000/svg" xmlns:xlink="http://www.w3.org/1999/xlink" width="512" zoomAndPan="magnify" viewBox="0 0 384 383.999986" height="512" preserveAspectRatio="xMidYMid meet" version="1.0"><defs><g/><clipPath id="3cd731af07"><path d="M 92.636719 53.40625 L 291.386719 53.40625 L 291.386719 252.15625 L 92.636719 252.15625 Z M 92.636719 53.40625 " clip-rule="nonzero"/></clipPath><clipPath id="5bf49f81ac"><path d="M 100.617188 61.386719 L 283.617188 61.386719 L 283.617188 244.386719 L 100.617188 244.386719 Z M 100.617188 61.386719 " clip-rule="nonzero"/></clipPath></defs><g fill="#10bb82" fill-opacity="1"><g transform="translate(14.519537, 324.287538)"><g><path d="M 27.625 -18.183594 C 27.625 -14.964844 27.222656 -12.0625 26.417969 -9.46875 C 25.578125 -6.769531 24.328125 -4.46875 22.660156 -2.570312 C 20.972656 -0.648438 18.902344 0.824219 16.453125 1.84375 C 14.054688 2.84375 11.339844 3.34375 8.300781 3.34375 C 5.632812 3.34375 2.917969 2.96875 0.160156 2.21875 L -2.023438 1.625 L -1.867188 -0.628906 C -1.816406 -1.375 -1.75 -2.109375 -1.675781 -2.839844 C -1.605469 -3.507812 -1.546875 -4.171875 -1.5 -4.824219 L -1.496094 -4.886719 L -1.488281 -4.949219 C -1.363281 -6 -0.949219 -6.878906 -0.238281 -7.585938 C 0.554688 -8.382812 1.601562 -8.78125 2.902344 -8.78125 C 3.617188 -8.78125 4.464844 -8.628906 5.449219 -8.328125 C 5.910156 -8.1875 6.617188 -8.117188 7.566406 -8.117188 C 8.84375 -8.117188 9.957031 -8.300781 10.914062 -8.667969 C 11.742188 -8.988281 12.429688 -9.476562 12.980469 -10.140625 C 13.589844 -10.867188 14.066406 -11.847656 14.410156 -13.074219 C 14.796875 -14.433594 14.988281 -16.085938 14.988281 -18.035156 L 14.988281 -55.398438 L 27.625 -55.398438 Z M 22.113281 -18.183594 L 22.113281 -52.640625 L 24.871094 -52.640625 L 24.871094 -49.886719 L 17.742188 -49.886719 L 17.742188 -52.640625 L 20.5 -52.640625 L 20.5 -18.035156 C 20.5 -15.578125 20.238281 -13.425781 19.714844 -11.574219 C 19.15625 -9.59375 18.320312 -7.941406 17.214844 -6.613281 C 16.050781 -5.214844 14.609375 -4.1875 12.890625 -3.527344 C 11.300781 -2.914062 9.523438 -2.609375 7.566406 -2.609375 C 6.070312 -2.609375 4.828125 -2.757812 3.84375 -3.058594 C 3.382812 -3.199219 3.070312 -3.269531 2.902344 -3.269531 L 2.898438 -3.269531 C 2.941406 -3.277344 2.992188 -3.289062 3.046875 -3.304688 C 3.269531 -3.378906 3.472656 -3.507812 3.65625 -3.691406 C 3.851562 -3.882812 3.960938 -4.089844 3.984375 -4.308594 L 1.25 -4.628906 L 3.996094 -4.433594 C 3.945312 -3.714844 3.882812 -2.992188 3.804688 -2.265625 C 3.734375 -1.597656 3.675781 -0.929688 3.628906 -0.25 L 0.882812 -0.441406 L 1.605469 -3.101562 C 3.890625 -2.476562 6.121094 -2.167969 8.300781 -2.167969 C 10.605469 -2.167969 12.613281 -2.527344 14.332031 -3.242188 C 15.996094 -3.933594 17.390625 -4.921875 18.519531 -6.207031 C 19.667969 -7.519531 20.546875 -9.148438 21.15625 -11.101562 C 21.792969 -13.164062 22.113281 -15.523438 22.113281 -18.183594 Z M 22.113281 -18.183594 "/></g></g></g><g fill="#10bb82" fill-opacity="1"><g transform="translate(44.236042, 324.287538)"><g><path d="M 20.867188 -40.554688 C 23.949219 -40.554688 26.753906 -40.03125 29.269531 -38.984375 C 31.820312 -37.925781 34.003906 -36.414062 35.816406 -34.457031 C 37.621094 -32.507812 38.996094 -30.171875 39.945312 -27.445312 C 40.867188 -24.789062 41.328125 -21.847656 41.328125 -18.625 C 41.328125 -15.375 40.867188 -12.425781 39.941406 -9.78125 C 38.996094 -7.070312 37.621094 -4.738281 35.816406 -2.792969 C 34 -0.832031 31.8125 0.675781 29.257812 1.722656 C 26.742188 2.753906 23.945312 3.269531 20.867188 3.269531 C 17.761719 3.269531 14.949219 2.753906 12.421875 1.726562 C 9.855469 0.675781 7.660156 -0.828125 5.839844 -2.792969 C 4.035156 -4.738281 2.660156 -7.070312 1.714844 -9.78125 C 0.792969 -12.425781 0.332031 -15.375 0.332031 -18.625 C 0.332031 -21.847656 0.792969 -24.789062 1.714844 -27.445312 C 2.660156 -30.171875 4.035156 -32.507812 5.839844 -34.457031 C 7.65625 -36.417969 9.847656 -37.925781 12.410156 -38.988281 C 14.941406 -40.03125 17.757812 -40.554688 20.867188 -40.554688 Z M 20.867188 -35.046875 C 18.488281 -35.046875 16.371094 -34.660156 14.515625 -33.894531 C 12.695312 -33.140625 11.152344 -32.082031 9.882812 -30.710938 C 8.601562 -29.328125 7.613281 -27.636719 6.917969 -25.636719 C 6.199219 -23.566406 5.839844 -21.230469 5.839844 -18.625 C 5.839844 -15.996094 6.199219 -13.65625 6.917969 -11.597656 C 7.613281 -9.609375 8.601562 -7.921875 9.882812 -6.539062 C 11.148438 -5.171875 12.6875 -4.117188 14.503906 -3.378906 C 16.363281 -2.621094 18.484375 -2.242188 20.867188 -2.242188 C 23.222656 -2.242188 25.324219 -2.621094 27.167969 -3.375 C 28.972656 -4.117188 30.507812 -5.171875 31.773438 -6.539062 C 33.058594 -7.921875 34.046875 -9.609375 34.738281 -11.597656 C 35.457031 -13.65625 35.816406 -15.996094 35.816406 -18.625 C 35.816406 -21.230469 35.457031 -23.566406 34.738281 -25.636719 C 34.042969 -27.636719 33.054688 -29.328125 31.773438 -30.710938 C 30.503906 -32.082031 28.964844 -33.144531 27.15625 -33.898438 C 25.3125 -34.664062 23.21875 -35.046875 20.867188 -35.046875 Z M 20.867188 -7.347656 C 22.308594 -7.347656 23.539062 -7.574219 24.550781 -8.027344 C 25.480469 -8.445312 26.253906 -9.074219 26.875 -9.917969 C 28.328125 -11.894531 29.058594 -14.78125 29.058594 -18.589844 C 29.058594 -22.417969 28.328125 -25.328125 26.871094 -27.320312 C 26.25 -28.164062 25.476562 -28.796875 24.546875 -29.21875 C 23.535156 -29.675781 22.308594 -29.902344 20.867188 -29.902344 C 19.40625 -29.902344 18.167969 -29.667969 17.148438 -29.199219 C 16.179688 -28.753906 15.375 -28.109375 14.734375 -27.273438 C 14.042969 -26.367188 13.515625 -25.222656 13.15625 -23.832031 C 12.761719 -22.304688 12.5625 -20.558594 12.5625 -18.589844 C 12.5625 -14.785156 13.296875 -11.898438 14.757812 -9.925781 C 15.382812 -9.082031 16.167969 -8.453125 17.109375 -8.035156 C 18.140625 -7.574219 19.394531 -7.347656 20.867188 -7.347656 Z M 20.867188 -1.835938 C 18.613281 -1.835938 16.617188 -2.222656 14.875 -2.996094 C 13.046875 -3.808594 11.53125 -5.023438 10.332031 -6.644531 C 8.144531 -9.589844 7.054688 -13.574219 7.054688 -18.589844 C 7.054688 -21.027344 7.308594 -23.234375 7.820312 -25.210938 C 8.367188 -27.324219 9.210938 -29.125 10.355469 -30.621094 C 11.550781 -32.183594 13.046875 -33.378906 14.847656 -34.207031 C 16.59375 -35.011719 18.601562 -35.414062 20.867188 -35.414062 C 23.097656 -35.414062 25.078125 -35.023438 26.808594 -34.242188 C 28.621094 -33.425781 30.125 -32.203125 31.316406 -30.574219 C 33.484375 -27.617188 34.566406 -23.621094 34.566406 -18.589844 C 34.566406 -13.578125 33.484375 -9.597656 31.3125 -6.648438 C 30.121094 -5.03125 28.617188 -3.8125 26.804688 -3 C 25.074219 -2.226562 23.09375 -1.835938 20.867188 -1.835938 Z M 20.867188 -1.835938 "/></g></g></g><g fill="#10bb82" fill-opacity="1"><g transform="translate(84.715176, 324.287538)"><g><path d="M 39.816406 -36.121094 L 19.0625 12.074219 C 18.667969 12.949219 18.160156 13.664062 17.535156 14.21875 C 16.683594 14.976562 15.5625 15.355469 14.179688 15.355469 L 5.03125 15.355469 L 13.625 -3.320312 L 16.125 -2.167969 L 13.601562 -1.0625 L -3.445312 -39.96875 L 6.429688 -39.96875 C 7.667969 -39.96875 8.710938 -39.609375 9.554688 -38.886719 C 10.261719 -38.289062 10.757812 -37.585938 11.042969 -36.78125 L 8.449219 -35.851562 L 10.984375 -36.929688 L 20.960938 -13.445312 L 20.980469 -13.398438 C 21.414062 -12.257812 21.777344 -11.066406 22.074219 -9.824219 L 19.394531 -9.183594 L 16.753906 -9.96875 C 17.117188 -11.1875 17.507812 -12.339844 17.921875 -13.433594 L 17.9375 -13.46875 L 27.613281 -36.90625 L 30.160156 -35.851562 L 27.578125 -36.820312 C 27.921875 -37.730469 28.492188 -38.476562 29.296875 -39.058594 C 30.132812 -39.664062 31.070312 -39.96875 32.105469 -39.96875 L 41.472656 -39.96875 Z M 34.753906 -38.300781 L 37.285156 -37.210938 L 37.285156 -34.457031 L 32.105469 -34.457031 C 32.261719 -34.457031 32.402344 -34.503906 32.527344 -34.59375 C 32.621094 -34.664062 32.691406 -34.757812 32.738281 -34.886719 L 32.722656 -34.84375 L 23.046875 -11.402344 L 20.5 -12.453125 L 23.074219 -11.472656 C 22.707031 -10.507812 22.359375 -9.484375 22.035156 -8.398438 L 19.105469 1.445312 L 16.714844 -8.542969 C 16.472656 -9.554688 16.179688 -10.519531 15.828125 -11.433594 L 18.402344 -12.417969 L 15.867188 -11.339844 L 5.882812 -34.851562 L 5.855469 -34.925781 C 5.882812 -34.851562 5.914062 -34.785156 5.957031 -34.726562 C 5.96875 -34.710938 5.980469 -34.699219 5.988281 -34.6875 L 5.984375 -34.691406 C 6.101562 -34.589844 6.226562 -34.519531 6.359375 -34.480469 C 6.394531 -34.46875 6.421875 -34.460938 6.449219 -34.457031 L 6.453125 -34.457031 C 6.445312 -34.457031 6.4375 -34.457031 6.429688 -34.457031 L 0.769531 -34.457031 L 0.769531 -37.210938 L 3.296875 -38.316406 L 19.148438 -2.140625 L 11.832031 13.753906 L 9.332031 12.601562 L 9.332031 9.84375 L 14.179688 9.84375 C 14.238281 9.84375 14.285156 9.84375 14.324219 9.835938 C 14.332031 9.835938 14.335938 9.835938 14.335938 9.835938 C 14.332031 9.835938 14.320312 9.839844 14.308594 9.84375 C 14.164062 9.886719 14.019531 9.96875 13.875 10.101562 C 13.910156 10.066406 13.953125 10 14 9.894531 Z M 34.753906 -38.300781 "/></g></g></g><g fill="#10bb82" fill-opacity="1"><g transform="translate(120.786355, 324.287538)"><g/></g></g><g fill="#10bb82" fill-opacity="1"><g transform="translate(139.593391, 324.287538)"><g><path d="M 14.839844 -37.210938 L 14.839844 2.753906 L 2.792969 2.753906 L 2.792969 -39.96875 L 14.839844 -39.96875 Z M 9.332031 -37.210938 L 12.085938 -37.210938 L 12.085938 -34.457031 L 5.546875 -34.457031 L 5.546875 -37.210938 L 8.300781 -37.210938 L 8.300781 0 L 5.546875 0 L 5.546875 -2.753906 L 12.085938 -2.753906 L 12.085938 0 L 9.332031 0 Z M 16.238281 -48.894531 C 16.238281 -47.851562 16.023438 -46.867188 15.59375 -45.949219 C 15.199219 -45.101562 14.671875 -44.351562 14.015625 -43.695312 C 13.335938 -43.015625 12.542969 -42.480469 11.640625 -42.097656 C 10.71875 -41.707031 9.753906 -41.511719 8.742188 -41.511719 C 7.714844 -41.511719 6.75 -41.710938 5.84375 -42.113281 C 4.96875 -42.503906 4.199219 -43.039062 3.535156 -43.722656 C 2.890625 -44.386719 2.378906 -45.144531 2 -45.992188 C 1.597656 -46.902344 1.394531 -47.867188 1.394531 -48.894531 C 1.394531 -49.90625 1.589844 -50.871094 1.984375 -51.792969 C 2.363281 -52.683594 2.878906 -53.464844 3.535156 -54.140625 C 4.199219 -54.820312 4.96875 -55.359375 5.84375 -55.746094 C 6.75 -56.148438 7.714844 -56.351562 8.742188 -56.351562 C 9.753906 -56.351562 10.71875 -56.15625 11.640625 -55.765625 C 12.542969 -55.378906 13.335938 -54.847656 14.015625 -54.167969 C 14.683594 -53.5 15.214844 -52.722656 15.613281 -51.835938 C 16.027344 -50.902344 16.238281 -49.921875 16.238281 -48.894531 Z M 10.726562 -48.894531 C 10.726562 -49.140625 10.679688 -49.371094 10.582031 -49.589844 C 10.460938 -49.855469 10.308594 -50.082031 10.117188 -50.269531 C 9.941406 -50.445312 9.730469 -50.589844 9.484375 -50.695312 C 9.25 -50.792969 9.003906 -50.839844 8.742188 -50.839844 C 8.496094 -50.839844 8.273438 -50.796875 8.082031 -50.710938 C 7.855469 -50.609375 7.65625 -50.472656 7.488281 -50.300781 C 7.308594 -50.117188 7.164062 -49.894531 7.054688 -49.632812 C 6.957031 -49.402344 6.90625 -49.15625 6.90625 -48.894531 C 6.90625 -48.648438 6.949219 -48.425781 7.035156 -48.230469 C 7.148438 -47.980469 7.296875 -47.757812 7.488281 -47.5625 C 7.65625 -47.390625 7.855469 -47.25 8.082031 -47.152344 C 8.273438 -47.0625 8.496094 -47.019531 8.742188 -47.019531 C 9.003906 -47.019531 9.25 -47.070312 9.484375 -47.167969 C 9.730469 -47.273438 9.941406 -47.414062 10.117188 -47.589844 C 10.320312 -47.792969 10.480469 -48.019531 10.597656 -48.277344 C 10.683594 -48.460938 10.726562 -48.664062 10.726562 -48.894531 Z M 10.726562 -48.894531 "/></g></g></g><g fill="#10bb82" fill-opacity="1"><g transform="translate(157.224993, 324.287538)"><g><path d="M 9.292969 -33.648438 C 10.203125 -34.664062 11.164062 -35.585938 12.1875 -36.414062 C 13.238281 -37.265625 14.355469 -38 15.539062 -38.613281 C 16.75 -39.238281 18.027344 -39.71875 19.378906 -40.050781 C 20.734375 -40.386719 22.183594 -40.554688 23.730469 -40.554688 C 26.144531 -40.554688 28.304688 -40.144531 30.207031 -39.320312 C 32.160156 -38.472656 33.796875 -37.265625 35.113281 -35.699219 C 36.394531 -34.179688 37.359375 -32.371094 38.007812 -30.277344 C 38.628906 -28.273438 38.9375 -26.078125 38.9375 -23.695312 L 38.9375 2.753906 L 26.851562 2.753906 L 26.851562 -23.695312 C 26.851562 -25.847656 26.421875 -27.449219 25.554688 -28.496094 C 24.820312 -29.382812 23.578125 -29.828125 21.820312 -29.828125 C 20.359375 -29.828125 19 -29.480469 17.738281 -28.777344 C 16.332031 -28 15.023438 -26.929688 13.8125 -25.570312 L 11.753906 -27.40625 L 14.511719 -27.40625 L 14.511719 2.753906 L 2.425781 2.753906 L 2.425781 -39.96875 L 9.109375 -39.96875 C 10.210938 -39.96875 11.15625 -39.65625 11.945312 -39.039062 C 12.730469 -38.417969 13.253906 -37.574219 13.515625 -36.503906 L 13.550781 -36.355469 L 14.085938 -32.160156 L 11.351562 -31.8125 Z M 9.382812 -25.464844 L 8.105469 -35.503906 L 10.835938 -35.851562 L 8.160156 -35.203125 C 8.167969 -35.167969 8.191406 -35.117188 8.226562 -35.054688 C 8.304688 -34.925781 8.40625 -34.808594 8.535156 -34.707031 C 8.664062 -34.605469 8.804688 -34.53125 8.949219 -34.488281 C 9.019531 -34.46875 9.074219 -34.457031 9.109375 -34.457031 L 5.179688 -34.457031 L 5.179688 -37.210938 L 7.933594 -37.210938 L 7.933594 0 L 5.179688 0 L 5.179688 -2.753906 L 11.753906 -2.753906 L 11.753906 0 L 9 0 L 9 -28.453125 L 9.699219 -29.238281 C 11.328125 -31.0625 13.117188 -32.515625 15.066406 -33.597656 C 17.160156 -34.757812 19.410156 -35.339844 21.820312 -35.339844 C 23.484375 -35.339844 24.964844 -35.078125 26.269531 -34.5625 C 27.683594 -33.996094 28.859375 -33.148438 29.804688 -32.007812 C 31.511719 -29.941406 32.363281 -27.171875 32.363281 -23.695312 L 32.363281 0 L 29.609375 0 L 29.609375 -2.753906 L 36.183594 -2.753906 L 36.183594 0 L 33.429688 0 L 33.429688 -23.695312 C 33.429688 -25.523438 33.199219 -27.171875 32.742188 -28.644531 C 32.316406 -30.03125 31.699219 -31.199219 30.898438 -32.152344 C 30.136719 -33.054688 29.175781 -33.761719 28.015625 -34.261719 C 26.8125 -34.785156 25.382812 -35.046875 23.730469 -35.046875 C 22.632812 -35.046875 21.621094 -34.929688 20.699219 -34.703125 C 19.773438 -34.472656 18.898438 -34.144531 18.074219 -33.71875 C 17.222656 -33.277344 16.417969 -32.75 15.65625 -32.132812 C 14.867188 -31.492188 14.117188 -30.773438 13.40625 -29.980469 Z M 9.382812 -25.464844 "/></g></g></g><g fill="#10bb82" fill-opacity="1"><g transform="translate(198.218459, 324.287538)"><g/></g></g><g fill="#10bb82" fill-opacity="1"><g transform="translate(217.025495, 324.287538)"><g><path d="M 43.679688 -13.628906 C 44.28125 -13.628906 44.851562 -13.503906 45.390625 -13.253906 C 45.890625 -13.019531 46.335938 -12.691406 46.730469 -12.265625 L 51.230469 -7.414062 L 49.621094 -5.546875 C 47.203125 -2.742188 44.273438 -0.558594 40.832031 1.003906 C 37.394531 2.5625 33.300781 3.34375 28.542969 3.34375 C 24.398438 3.34375 20.609375 2.613281 17.179688 1.160156 C 13.730469 -0.304688 10.78125 -2.367188 8.332031 -5.019531 C 5.902344 -7.65625 4.027344 -10.796875 2.699219 -14.453125 C 1.390625 -18.0625 0.734375 -22.011719 0.734375 -26.300781 C 0.734375 -30.605469 1.417969 -34.566406 2.785156 -38.1875 C 4.167969 -41.839844 6.117188 -44.992188 8.640625 -47.636719 C 11.171875 -50.292969 14.199219 -52.351562 17.714844 -53.808594 C 21.214844 -55.257812 25.054688 -55.984375 29.242188 -55.984375 C 33.355469 -55.984375 37.019531 -55.3125 40.222656 -53.96875 C 43.398438 -52.640625 46.195312 -50.832031 48.617188 -48.546875 L 50.371094 -46.890625 L 46.613281 -41.664062 L 44.375 -43.273438 L 46.738281 -41.855469 C 46.386719 -41.265625 45.925781 -40.78125 45.363281 -40.394531 C 44.660156 -39.914062 43.828125 -39.671875 42.871094 -39.671875 C 41.816406 -39.671875 40.726562 -40.097656 39.601562 -40.941406 C 39.054688 -41.351562 38.316406 -41.820312 37.386719 -42.351562 C 36.535156 -42.839844 35.433594 -43.292969 34.082031 -43.710938 C 32.804688 -44.105469 31.179688 -44.300781 29.203125 -44.300781 C 26.855469 -44.300781 24.722656 -43.902344 22.8125 -43.101562 C 20.933594 -42.316406 19.316406 -41.179688 17.960938 -39.691406 C 16.582031 -38.179688 15.503906 -36.3125 14.722656 -34.09375 C 13.917969 -31.816406 13.519531 -29.222656 13.519531 -26.300781 C 13.519531 -23.347656 13.933594 -20.738281 14.765625 -18.472656 C 15.582031 -16.242188 16.683594 -14.371094 18.066406 -12.863281 C 19.421875 -11.386719 21.023438 -10.257812 22.867188 -9.484375 C 24.742188 -8.695312 26.78125 -8.300781 28.984375 -8.300781 C 30.417969 -8.300781 31.699219 -8.382812 32.828125 -8.550781 C 33.902344 -8.707031 34.878906 -8.945312 35.765625 -9.273438 C 36.636719 -9.589844 37.441406 -9.996094 38.183594 -10.480469 C 38.976562 -10.996094 39.769531 -11.621094 40.566406 -12.351562 C 41.527344 -13.203125 42.566406 -13.628906 43.679688 -13.628906 Z M 43.679688 -8.117188 C 43.855469 -8.117188 44.019531 -8.152344 44.164062 -8.214844 C 44.203125 -8.230469 44.234375 -8.25 44.261719 -8.265625 C 44.265625 -8.269531 44.269531 -8.269531 44.269531 -8.269531 C 44.265625 -8.265625 44.273438 -8.273438 44.292969 -8.292969 C 43.277344 -7.359375 42.246094 -6.550781 41.199219 -5.867188 C 40.105469 -5.152344 38.929688 -4.5625 37.667969 -4.101562 C 36.421875 -3.640625 35.074219 -3.308594 33.625 -3.097656 C 32.230469 -2.894531 30.683594 -2.792969 28.984375 -2.792969 C 26.042969 -2.792969 23.292969 -3.328125 20.734375 -4.402344 C 18.148438 -5.488281 15.90625 -7.066406 14.003906 -9.140625 C 12.128906 -11.183594 10.660156 -13.660156 9.589844 -16.574219 C 8.535156 -19.453125 8.007812 -22.695312 8.007812 -26.300781 C 8.007812 -29.847656 8.511719 -33.054688 9.523438 -35.925781 C 10.554688 -38.847656 12.007812 -41.339844 13.886719 -43.402344 C 15.789062 -45.492188 18.054688 -47.085938 20.683594 -48.183594 C 23.277344 -49.269531 26.117188 -49.8125 29.203125 -49.8125 C 31.734375 -49.8125 33.90625 -49.53125 35.714844 -48.972656 C 37.449219 -48.4375 38.917969 -47.824219 40.121094 -47.136719 C 41.25 -46.492188 42.179688 -45.894531 42.90625 -45.347656 C 43.058594 -45.234375 43.171875 -45.160156 43.25 -45.128906 C 43.164062 -45.164062 43.039062 -45.183594 42.871094 -45.183594 C 42.835938 -45.183594 42.785156 -45.175781 42.71875 -45.160156 C 42.558594 -45.117188 42.402344 -45.046875 42.25 -44.941406 C 42.152344 -44.875 42.074219 -44.789062 42.011719 -44.691406 L 42.070312 -44.789062 L 44.488281 -48.152344 L 46.726562 -46.542969 L 44.835938 -44.539062 C 42.898438 -46.367188 40.652344 -47.816406 38.09375 -48.886719 C 35.570312 -49.945312 32.617188 -50.472656 29.242188 -50.472656 C 25.785156 -50.472656 22.648438 -49.886719 19.828125 -48.71875 C 17.027344 -47.558594 14.625 -45.929688 12.628906 -43.832031 C 10.621094 -41.726562 9.058594 -39.195312 7.941406 -36.238281 C 6.808594 -33.246094 6.246094 -29.933594 6.246094 -26.300781 C 6.246094 -22.65625 6.789062 -19.335938 7.878906 -16.332031 C 8.953125 -13.371094 10.457031 -10.847656 12.382812 -8.753906 C 14.296875 -6.683594 16.613281 -5.070312 19.335938 -3.914062 C 22.074219 -2.75 25.144531 -2.167969 28.542969 -2.167969 C 32.503906 -2.167969 35.839844 -2.785156 38.554688 -4.015625 C 41.257812 -5.242188 43.558594 -6.953125 45.449219 -9.148438 L 47.535156 -7.347656 L 45.515625 -5.472656 L 42.683594 -8.527344 C 42.78125 -8.417969 42.910156 -8.328125 43.070312 -8.253906 C 43.265625 -8.164062 43.46875 -8.117188 43.679688 -8.117188 Z M 43.679688 -8.117188 "/></g></g></g><g fill="#10bb82" fill-opacity="1"><g transform="translate(266.100114, 324.287538)"><g><path d="M 9.75 -34.144531 C 11.554688 -36.058594 13.5625 -37.59375 15.777344 -38.738281 C 18.109375 -39.949219 20.761719 -40.554688 23.730469 -40.554688 C 26.144531 -40.554688 28.304688 -40.144531 30.207031 -39.320312 C 32.160156 -38.472656 33.796875 -37.265625 35.113281 -35.699219 C 36.394531 -34.179688 37.359375 -32.371094 38.007812 -30.277344 C 38.628906 -28.273438 38.9375 -26.078125 38.9375 -23.695312 L 38.9375 2.753906 L 26.851562 2.753906 L 26.851562 -23.695312 C 26.851562 -25.847656 26.421875 -27.449219 25.554688 -28.496094 C 24.820312 -29.382812 23.578125 -29.828125 21.820312 -29.828125 C 20.359375 -29.828125 19 -29.480469 17.738281 -28.777344 C 16.332031 -28 15.023438 -26.929688 13.8125 -25.570312 L 11.753906 -27.40625 L 14.511719 -27.40625 L 14.511719 2.753906 L 2.425781 2.753906 L 2.425781 -56.867188 L 14.511719 -56.867188 L 14.511719 -32.253906 L 11.753906 -32.253906 Z M 9 -25.308594 L 9 -54.109375 L 11.753906 -54.109375 L 11.753906 -51.355469 L 5.179688 -51.355469 L 5.179688 -54.109375 L 7.933594 -54.109375 L 7.933594 0 L 5.179688 0 L 5.179688 -2.753906 L 11.753906 -2.753906 L 11.753906 0 L 9 0 L 9 -28.453125 L 9.699219 -29.238281 C 11.328125 -31.0625 13.117188 -32.515625 15.066406 -33.597656 C 17.160156 -34.757812 19.410156 -35.339844 21.820312 -35.339844 C 23.484375 -35.339844 24.964844 -35.078125 26.269531 -34.5625 C 27.683594 -33.996094 28.859375 -33.148438 29.804688 -32.007812 C 31.511719 -29.941406 32.363281 -27.171875 32.363281 -23.695312 L 32.363281 0 L 29.609375 0 L 29.609375 -2.753906 L 36.183594 -2.753906 L 36.183594 0 L 33.429688 0 L 33.429688 -23.695312 C 33.429688 -25.523438 33.199219 -27.171875 32.742188 -28.644531 C 32.316406 -30.03125 31.699219 -31.199219 30.898438 -32.152344 C 30.136719 -33.054688 29.175781 -33.761719 28.015625 -34.261719 C 26.8125 -34.785156 25.382812 -35.046875 23.730469 -35.046875 C 21.65625 -35.046875 19.851562 -34.644531 18.3125 -33.847656 C 16.65625 -32.988281 15.140625 -31.828125 13.761719 -30.363281 Z M 9 -25.308594 "/></g></g></g><g fill="#10bb82" fill-opacity="1"><g transform="translate(307.09358, 324.287538)"><g><path d="M 25.4375 -13.996094 C 22.558594 -13.902344 20.125 -13.679688 18.136719 -13.324219 C 16.25 -12.984375 14.742188 -12.558594 13.621094 -12.042969 C 12.726562 -11.632812 12.121094 -11.207031 11.804688 -10.769531 C 11.550781 -10.417969 11.425781 -10.023438 11.425781 -9.585938 C 11.425781 -9 11.503906 -8.53125 11.660156 -8.179688 C 11.804688 -7.863281 11.984375 -7.617188 12.199219 -7.4375 C 12.453125 -7.230469 12.765625 -7.074219 13.136719 -6.96875 C 13.644531 -6.828125 14.199219 -6.757812 14.804688 -6.757812 C 15.734375 -6.757812 16.570312 -6.851562 17.3125 -7.03125 C 18.050781 -7.210938 18.742188 -7.46875 19.390625 -7.804688 C 20.078125 -8.164062 20.742188 -8.597656 21.375 -9.101562 C 22.039062 -9.628906 22.695312 -10.234375 23.335938 -10.921875 L 25.347656 -9.035156 L 22.59375 -9.035156 L 22.59375 -16.75 L 25.347656 -16.75 Z M 28.101562 -19.597656 L 28.101562 -7.945312 L 27.355469 -7.152344 C 26.53125 -6.269531 25.679688 -5.480469 24.800781 -4.785156 C 23.890625 -4.0625 22.9375 -3.441406 21.9375 -2.921875 C 20.894531 -2.375 19.789062 -1.960938 18.617188 -1.675781 C 17.445312 -1.390625 16.175781 -1.25 14.804688 -1.25 C 13.695312 -1.25 12.648438 -1.386719 11.660156 -1.664062 C 10.539062 -1.972656 9.550781 -2.480469 8.703125 -3.179688 C 7.816406 -3.90625 7.128906 -4.824219 6.632812 -5.925781 C 6.152344 -6.996094 5.914062 -8.214844 5.914062 -9.585938 C 5.914062 -11.210938 6.386719 -12.675781 7.335938 -13.992188 C 8.21875 -15.214844 9.546875 -16.238281 11.324219 -17.050781 C 12.871094 -17.761719 14.816406 -18.328125 17.164062 -18.746094 C 19.414062 -19.148438 22.113281 -19.402344 25.257812 -19.503906 Z M 2.3125 -33.941406 C 4.621094 -36.167969 7.125 -37.839844 9.824219 -38.953125 C 12.535156 -40.070312 15.519531 -40.628906 18.773438 -40.628906 C 21.226562 -40.628906 23.433594 -40.214844 25.394531 -39.382812 C 27.386719 -38.535156 29.070312 -37.351562 30.445312 -35.824219 C 31.808594 -34.308594 32.832031 -32.496094 33.515625 -30.382812 C 34.167969 -28.371094 34.496094 -26.175781 34.496094 -23.804688 L 34.496094 2.753906 L 28.835938 2.753906 C 27.6875 2.753906 26.71875 2.519531 25.9375 2.042969 C 25.007812 1.476562 24.339844 0.5625 23.933594 -0.703125 L 23.890625 -0.839844 L 23.128906 -4.507812 L 25.824219 -5.070312 L 27.695312 -3.046875 C 26.648438 -2.078125 25.617188 -1.214844 24.613281 -0.460938 C 23.527344 0.355469 22.382812 1.039062 21.179688 1.597656 C 19.972656 2.160156 18.6875 2.59375 17.328125 2.890625 C 15.96875 3.191406 14.476562 3.34375 12.855469 3.34375 C 11.128906 3.34375 9.492188 3.097656 7.945312 2.609375 C 6.316406 2.089844 4.886719 1.304688 3.660156 0.253906 C 2.40625 -0.820312 1.417969 -2.167969 0.699219 -3.78125 C -0.0117188 -5.375 -0.367188 -7.214844 -0.367188 -9.292969 C -0.367188 -11.269531 0.164062 -13.152344 1.230469 -14.945312 C 2.285156 -16.714844 3.921875 -18.246094 6.144531 -19.539062 C 8.199219 -20.730469 10.816406 -21.695312 14 -22.429688 C 17.097656 -23.144531 20.859375 -23.554688 25.285156 -23.65625 L 25.347656 -20.902344 L 22.59375 -20.902344 L 22.59375 -23.804688 C 22.59375 -26.023438 22.183594 -27.617188 21.367188 -28.585938 C 20.667969 -29.414062 19.546875 -29.828125 18 -29.828125 C 16.714844 -29.828125 15.679688 -29.683594 14.898438 -29.394531 C 13.988281 -29.058594 13.214844 -28.6875 12.582031 -28.289062 C 11.824219 -27.808594 11.175781 -27.382812 10.636719 -27.003906 C 9.589844 -26.265625 8.492188 -25.898438 7.347656 -25.898438 C 6.304688 -25.898438 5.386719 -26.191406 4.582031 -26.777344 C 3.988281 -27.210938 3.488281 -27.746094 3.082031 -28.375 L 3.039062 -28.445312 L 0.78125 -32.464844 Z M 6.136719 -29.976562 L 4.222656 -31.960938 L 6.628906 -33.308594 L 7.800781 -31.214844 L 5.398438 -29.867188 L 7.71875 -31.355469 C 7.753906 -31.300781 7.792969 -31.257812 7.832031 -31.226562 C 7.667969 -31.347656 7.503906 -31.410156 7.347656 -31.410156 C 7.3125 -31.410156 7.289062 -31.40625 7.273438 -31.402344 C 7.324219 -31.417969 7.390625 -31.457031 7.472656 -31.515625 C 8.085938 -31.945312 8.808594 -32.421875 9.640625 -32.949219 C 10.601562 -33.554688 11.714844 -34.089844 12.984375 -34.5625 C 14.382812 -35.078125 16.054688 -35.339844 18 -35.339844 C 19.558594 -35.339844 20.960938 -35.085938 22.207031 -34.582031 C 23.539062 -34.039062 24.664062 -33.226562 25.582031 -32.136719 C 27.261719 -30.144531 28.101562 -27.363281 28.101562 -23.804688 L 28.101562 -18.210938 L 25.410156 -18.148438 C 21.363281 -18.054688 17.972656 -17.691406 15.242188 -17.058594 C 12.597656 -16.449219 10.488281 -15.6875 8.914062 -14.773438 C 7.515625 -13.960938 6.53125 -13.078125 5.96875 -12.128906 C 5.417969 -11.203125 5.144531 -10.257812 5.144531 -9.292969 C 5.144531 -7.996094 5.339844 -6.90625 5.730469 -6.027344 C 6.113281 -5.167969 6.621094 -4.46875 7.25 -3.929688 C 7.90625 -3.363281 8.695312 -2.9375 9.613281 -2.644531 C 10.617188 -2.328125 11.695312 -2.167969 12.855469 -2.167969 C 14.078125 -2.167969 15.171875 -2.273438 16.136719 -2.488281 C 17.105469 -2.703125 18.011719 -3.007812 18.859375 -3.398438 C 19.714844 -3.796875 20.53125 -4.285156 21.304688 -4.867188 C 22.160156 -5.507812 23.042969 -6.25 23.953125 -7.09375 L 27.527344 -10.398438 L 29.257812 -2.105469 L 26.558594 -1.542969 L 29.183594 -2.382812 C 29.199219 -2.332031 29.214844 -2.292969 29.226562 -2.261719 L 29.230469 -2.257812 C 29.226562 -2.265625 29.21875 -2.277344 29.210938 -2.289062 C 29.117188 -2.429688 28.980469 -2.554688 28.796875 -2.667969 C 28.703125 -2.726562 28.625 -2.761719 28.566406 -2.773438 C 28.621094 -2.761719 28.710938 -2.753906 28.835938 -2.753906 L 31.738281 -2.753906 L 31.738281 0 L 28.984375 0 L 28.984375 -23.804688 C 28.984375 -25.597656 28.746094 -27.222656 28.273438 -28.6875 C 27.832031 -30.050781 27.1875 -31.203125 26.347656 -32.136719 C 25.519531 -33.058594 24.484375 -33.78125 23.242188 -34.308594 C 21.96875 -34.847656 20.480469 -35.117188 18.773438 -35.117188 C 16.246094 -35.117188 13.964844 -34.699219 11.925781 -33.855469 C 9.871094 -33.011719 7.941406 -31.71875 6.136719 -29.976562 Z M 6.136719 -29.976562 "/></g></g></g><g fill="#10bb82" fill-opacity="1"><g transform="translate(343.128116, 324.287538)"><g><path d="M 16.605469 3.34375 C 12.882812 3.34375 9.964844 2.242188 7.839844 0.0390625 C 5.75 -2.136719 4.703125 -5.136719 4.703125 -8.964844 L 4.703125 -31.738281 L 7.457031 -31.738281 L 7.457031 -28.984375 L 2.976562 -28.984375 C 1.898438 -28.984375 0.96875 -29.324219 0.183594 -30.003906 C -0.308594 -30.425781 -0.667969 -30.949219 -0.902344 -31.570312 C -1.085938 -32.0625 -1.175781 -32.59375 -1.175781 -33.171875 L -1.175781 -38.207031 L 7.332031 -39.285156 L 7.675781 -36.550781 L 4.945312 -36.910156 L 6.464844 -48.5 L 6.480469 -48.589844 C 6.675781 -49.550781 7.125 -50.351562 7.832031 -50.992188 C 8.613281 -51.699219 9.566406 -52.054688 10.691406 -52.054688 L 16.75 -52.054688 L 16.75 -36.476562 L 13.996094 -36.476562 L 13.996094 -39.234375 L 27.515625 -39.234375 L 27.515625 -28.984375 L 13.996094 -28.984375 L 13.996094 -31.738281 L 16.75 -31.738281 L 16.75 -9.402344 C 16.75 -8.914062 16.800781 -8.515625 16.898438 -8.210938 C 16.953125 -8.046875 17.015625 -7.929688 17.082031 -7.863281 C 17.304688 -7.640625 17.632812 -7.53125 18.074219 -7.53125 C 18.433594 -7.53125 18.710938 -7.566406 18.910156 -7.636719 C 19.246094 -7.761719 19.523438 -7.890625 19.742188 -8.019531 C 20.046875 -8.203125 20.296875 -8.363281 20.496094 -8.503906 C 21.230469 -9.03125 21.992188 -9.292969 22.777344 -9.292969 C 23.511719 -9.292969 24.191406 -9.082031 24.8125 -8.660156 C 25.273438 -8.347656 25.671875 -7.929688 26.007812 -7.410156 L 26.027344 -7.382812 L 29.128906 -2.3125 L 27.484375 -0.777344 C 26.09375 0.523438 24.429688 1.539062 22.5 2.265625 C 20.59375 2.984375 18.628906 3.34375 16.605469 3.34375 Z M 16.605469 -2.167969 C 17.960938 -2.167969 19.277344 -2.410156 20.554688 -2.890625 C 21.804688 -3.363281 22.863281 -4 23.722656 -4.804688 L 25.605469 -2.792969 L 23.253906 -1.355469 L 21.34375 -4.476562 L 23.695312 -5.914062 L 21.378906 -4.417969 C 21.449219 -4.3125 21.558594 -4.210938 21.714844 -4.105469 C 22.027344 -3.890625 22.382812 -3.785156 22.777344 -3.785156 C 23.035156 -3.785156 23.273438 -3.828125 23.492188 -3.917969 C 23.582031 -3.953125 23.648438 -3.988281 23.699219 -4.019531 C 23.378906 -3.792969 23.007812 -3.550781 22.578125 -3.292969 C 22.058594 -2.984375 21.46875 -2.707031 20.800781 -2.464844 C 19.996094 -2.167969 19.085938 -2.019531 18.074219 -2.019531 C 16.113281 -2.019531 14.484375 -2.667969 13.1875 -3.964844 C 11.890625 -5.261719 11.242188 -7.074219 11.242188 -9.402344 L 11.242188 -34.496094 L 24.757812 -34.496094 L 24.757812 -31.738281 L 22.003906 -31.738281 L 22.003906 -36.476562 L 24.757812 -36.476562 L 24.757812 -33.722656 L 11.242188 -33.722656 L 11.242188 -49.296875 L 13.996094 -49.296875 L 13.996094 -46.542969 L 10.691406 -46.542969 C 10.789062 -46.542969 10.902344 -46.5625 11.023438 -46.605469 C 11.210938 -46.671875 11.378906 -46.769531 11.527344 -46.90625 C 11.722656 -47.082031 11.839844 -47.28125 11.886719 -47.507812 L 9.183594 -48.050781 L 11.914062 -47.691406 L 10.132812 -34.085938 L 1.925781 -33.046875 L 1.578125 -35.78125 L 4.335938 -35.78125 L 4.335938 -33.171875 C 4.335938 -33.257812 4.3125 -33.367188 4.261719 -33.496094 C 4.164062 -33.757812 4.007812 -33.980469 3.785156 -34.171875 C 3.535156 -34.386719 3.265625 -34.496094 2.976562 -34.496094 L 10.210938 -34.496094 L 10.210938 -8.964844 C 10.210938 -6.617188 10.746094 -4.890625 11.8125 -3.785156 C 12.847656 -2.707031 14.445312 -2.167969 16.605469 -2.167969 Z M 16.605469 -2.167969 "/></g></g></g><g fill="#7ed957" fill-opacity="1"><g transform="translate(14.519537, 324.287538)"><g><path d="M 24.875 -18.1875 C 24.875 -15.25 24.507812 -12.613281 23.78125 -10.28125 C 23.0625 -7.957031 22 -5.992188 20.59375 -4.390625 C 19.1875 -2.785156 17.453125 -1.550781 15.390625 -0.6875 C 13.335938 0.164062 10.972656 0.59375 8.296875 0.59375 C 5.878906 0.59375 3.40625 0.25 0.875 -0.4375 C 0.925781 -1.144531 0.988281 -1.847656 1.0625 -2.546875 C 1.132812 -3.242188 1.195312 -3.9375 1.25 -4.625 C 1.300781 -5.039062 1.453125 -5.378906 1.703125 -5.640625 C 1.960938 -5.898438 2.363281 -6.03125 2.90625 -6.03125 C 3.34375 -6.03125 3.921875 -5.914062 4.640625 -5.6875 C 5.367188 -5.46875 6.34375 -5.359375 7.5625 -5.359375 C 9.175781 -5.359375 10.617188 -5.601562 11.890625 -6.09375 C 13.171875 -6.582031 14.238281 -7.34375 15.09375 -8.375 C 15.957031 -9.40625 16.613281 -10.722656 17.0625 -12.328125 C 17.519531 -13.929688 17.75 -15.832031 17.75 -18.03125 L 17.75 -52.640625 L 24.875 -52.640625 Z M 24.875 -18.1875 "/></g></g></g><g fill="#7ed957" fill-opacity="1"><g transform="translate(44.236042, 324.287538)"><g><path d="M 20.859375 -37.796875 C 23.578125 -37.796875 26.023438 -37.34375 28.203125 -36.4375 C 30.390625 -35.53125 32.253906 -34.242188 33.796875 -32.578125 C 35.335938 -30.910156 36.519531 -28.894531 37.34375 -26.53125 C 38.164062 -24.175781 38.578125 -21.539062 38.578125 -18.625 C 38.578125 -15.6875 38.164062 -13.039062 37.34375 -10.6875 C 36.519531 -8.332031 35.335938 -6.320312 33.796875 -4.65625 C 32.253906 -3 30.390625 -1.722656 28.203125 -0.828125 C 26.023438 0.0664062 23.578125 0.515625 20.859375 0.515625 C 18.117188 0.515625 15.648438 0.0664062 13.453125 -0.828125 C 11.265625 -1.722656 9.398438 -3 7.859375 -4.65625 C 6.316406 -6.320312 5.132812 -8.332031 4.3125 -10.6875 C 3.488281 -13.039062 3.078125 -15.6875 3.078125 -18.625 C 3.078125 -21.539062 3.488281 -24.175781 4.3125 -26.53125 C 5.132812 -28.894531 6.316406 -30.910156 7.859375 -32.578125 C 9.398438 -34.242188 11.265625 -35.53125 13.453125 -36.4375 C 15.648438 -37.34375 18.117188 -37.796875 20.859375 -37.796875 Z M 20.859375 -4.59375 C 24.535156 -4.59375 27.28125 -5.820312 29.09375 -8.28125 C 30.90625 -10.738281 31.8125 -14.175781 31.8125 -18.59375 C 31.8125 -23.019531 30.90625 -26.46875 29.09375 -28.9375 C 27.28125 -31.414062 24.535156 -32.65625 20.859375 -32.65625 C 19.003906 -32.65625 17.382812 -32.335938 16 -31.703125 C 14.613281 -31.066406 13.460938 -30.144531 12.546875 -28.9375 C 11.628906 -27.738281 10.941406 -26.265625 10.484375 -24.515625 C 10.035156 -22.765625 9.8125 -20.789062 9.8125 -18.59375 C 9.8125 -14.175781 10.722656 -10.738281 12.546875 -8.28125 C 14.367188 -5.820312 17.140625 -4.59375 20.859375 -4.59375 Z M 20.859375 -4.59375 "/></g></g></g><g fill="#7ed957" fill-opacity="1"><g transform="translate(84.715176, 324.287538)"><g><path d="M 37.28125 -37.21875 L 16.53125 10.984375 C 16.3125 11.472656 16.035156 11.863281 15.703125 12.15625 C 15.367188 12.445312 14.859375 12.59375 14.171875 12.59375 L 9.328125 12.59375 L 16.125 -2.171875 L 0.765625 -37.21875 L 6.421875 -37.21875 C 6.984375 -37.21875 7.429688 -37.070312 7.765625 -36.78125 C 8.097656 -36.5 8.328125 -36.191406 8.453125 -35.859375 L 18.40625 -12.421875 C 18.789062 -11.390625 19.117188 -10.3125 19.390625 -9.1875 C 19.734375 -10.332031 20.101562 -11.421875 20.5 -12.453125 L 30.15625 -35.859375 C 30.300781 -36.242188 30.550781 -36.566406 30.90625 -36.828125 C 31.257812 -37.085938 31.660156 -37.21875 32.109375 -37.21875 Z M 37.28125 -37.21875 "/></g></g></g><g fill="#7ed957" fill-opacity="1"><g transform="translate(120.786355, 324.287538)"><g/></g></g><g fill="#7ed957" fill-opacity="1"><g transform="translate(139.593391, 324.287538)"><g><path d="M 12.078125 -37.21875 L 12.078125 0 L 5.546875 0 L 5.546875 -37.21875 Z M 13.484375 -48.890625 C 13.484375 -48.253906 13.351562 -47.660156 13.09375 -47.109375 C 12.832031 -46.554688 12.488281 -46.066406 12.0625 -45.640625 C 11.632812 -45.210938 11.132812 -44.875 10.5625 -44.625 C 9.988281 -44.382812 9.382812 -44.265625 8.75 -44.265625 C 8.101562 -44.265625 7.503906 -44.382812 6.953125 -44.625 C 6.410156 -44.875 5.929688 -45.210938 5.515625 -45.640625 C 5.097656 -46.066406 4.765625 -46.554688 4.515625 -47.109375 C 4.273438 -47.660156 4.15625 -48.253906 4.15625 -48.890625 C 4.15625 -49.523438 4.273438 -50.128906 4.515625 -50.703125 C 4.765625 -51.285156 5.097656 -51.789062 5.515625 -52.21875 C 5.929688 -52.644531 6.410156 -52.976562 6.953125 -53.21875 C 7.503906 -53.46875 8.101562 -53.59375 8.75 -53.59375 C 9.382812 -53.59375 9.988281 -53.46875 10.5625 -53.21875 C 11.132812 -52.976562 11.632812 -52.644531 12.0625 -52.21875 C 12.488281 -51.789062 12.832031 -51.285156 13.09375 -50.703125 C 13.351562 -50.128906 13.484375 -49.523438 13.484375 -48.890625 Z M 13.484375 -48.890625 "/></g></g></g><g fill="#7ed957" fill-opacity="1"><g transform="translate(157.224993, 324.287538)"><g><path d="M 11.34375 -31.8125 C 12.15625 -32.71875 13.015625 -33.535156 13.921875 -34.265625 C 14.828125 -35.003906 15.785156 -35.632812 16.796875 -36.15625 C 17.816406 -36.6875 18.894531 -37.09375 20.03125 -37.375 C 21.175781 -37.65625 22.410156 -37.796875 23.734375 -37.796875 C 25.765625 -37.796875 27.554688 -37.457031 29.109375 -36.78125 C 30.660156 -36.113281 31.957031 -35.160156 33 -33.921875 C 34.039062 -32.679688 34.832031 -31.191406 35.375 -29.453125 C 35.914062 -27.722656 36.1875 -25.800781 36.1875 -23.6875 L 36.1875 0 L 29.609375 0 L 29.609375 -23.6875 C 29.609375 -26.507812 28.960938 -28.695312 27.671875 -30.25 C 26.390625 -31.800781 24.4375 -32.578125 21.8125 -32.578125 C 19.882812 -32.578125 18.082031 -32.113281 16.40625 -31.1875 C 14.726562 -30.257812 13.175781 -29 11.75 -27.40625 L 11.75 0 L 5.171875 0 L 5.171875 -37.21875 L 9.109375 -37.21875 C 10.035156 -37.21875 10.613281 -36.765625 10.84375 -35.859375 Z M 11.34375 -31.8125 "/></g></g></g><g fill="#7ed957" fill-opacity="1"><g transform="translate(198.218459, 324.287538)"><g/></g></g><g fill="#7ed957" fill-opacity="1"><g transform="translate(217.025495, 324.287538)"><g><path d="M 43.671875 -10.875 C 44.066406 -10.875 44.410156 -10.710938 44.703125 -10.390625 L 47.53125 -7.34375 C 45.375 -4.84375 42.757812 -2.894531 39.6875 -1.5 C 36.613281 -0.101562 32.898438 0.59375 28.546875 0.59375 C 24.773438 0.59375 21.34375 -0.0625 18.25 -1.375 C 15.164062 -2.6875 12.535156 -4.523438 10.359375 -6.890625 C 8.179688 -9.253906 6.488281 -12.085938 5.28125 -15.390625 C 4.082031 -18.691406 3.484375 -22.328125 3.484375 -26.296875 C 3.484375 -30.265625 4.109375 -33.898438 5.359375 -37.203125 C 6.609375 -40.515625 8.363281 -43.359375 10.625 -45.734375 C 12.894531 -48.109375 15.609375 -49.953125 18.765625 -51.265625 C 21.929688 -52.578125 25.421875 -53.234375 29.234375 -53.234375 C 32.984375 -53.234375 36.289062 -52.628906 39.15625 -51.421875 C 42.019531 -50.222656 44.539062 -48.597656 46.71875 -46.546875 L 44.375 -43.265625 C 44.226562 -43.023438 44.035156 -42.820312 43.796875 -42.65625 C 43.566406 -42.5 43.257812 -42.421875 42.875 -42.421875 C 42.425781 -42.421875 41.882812 -42.660156 41.25 -43.140625 C 40.613281 -43.617188 39.78125 -44.148438 38.75 -44.734375 C 37.726562 -45.328125 36.441406 -45.863281 34.890625 -46.34375 C 33.347656 -46.820312 31.453125 -47.0625 29.203125 -47.0625 C 26.484375 -47.0625 23.992188 -46.585938 21.734375 -45.640625 C 19.484375 -44.703125 17.546875 -43.335938 15.921875 -41.546875 C 14.296875 -39.753906 13.03125 -37.570312 12.125 -35 C 11.21875 -32.4375 10.765625 -29.535156 10.765625 -26.296875 C 10.765625 -23.015625 11.234375 -20.085938 12.171875 -17.515625 C 13.117188 -14.953125 14.40625 -12.78125 16.03125 -11 C 17.664062 -9.226562 19.585938 -7.875 21.796875 -6.9375 C 24.015625 -6.007812 26.410156 -5.546875 28.984375 -5.546875 C 30.546875 -5.546875 31.957031 -5.632812 33.21875 -5.8125 C 34.488281 -6 35.65625 -6.285156 36.71875 -6.671875 C 37.78125 -7.066406 38.769531 -7.566406 39.6875 -8.171875 C 40.601562 -8.773438 41.515625 -9.492188 42.421875 -10.328125 C 42.835938 -10.691406 43.253906 -10.875 43.671875 -10.875 Z M 43.671875 -10.875 "/></g></g></g><g fill="#7ed957" fill-opacity="1"><g transform="translate(266.100114, 324.287538)"><g><path d="M 11.75 -32.25 C 13.34375 -33.9375 15.109375 -35.28125 17.046875 -36.28125 C 18.984375 -37.289062 21.210938 -37.796875 23.734375 -37.796875 C 25.765625 -37.796875 27.554688 -37.457031 29.109375 -36.78125 C 30.660156 -36.113281 31.957031 -35.160156 33 -33.921875 C 34.039062 -32.679688 34.832031 -31.191406 35.375 -29.453125 C 35.914062 -27.722656 36.1875 -25.800781 36.1875 -23.6875 L 36.1875 0 L 29.609375 0 L 29.609375 -23.6875 C 29.609375 -26.507812 28.960938 -28.695312 27.671875 -30.25 C 26.390625 -31.800781 24.4375 -32.578125 21.8125 -32.578125 C 19.882812 -32.578125 18.082031 -32.113281 16.40625 -31.1875 C 14.726562 -30.257812 13.175781 -29 11.75 -27.40625 L 11.75 0 L 5.171875 0 L 5.171875 -54.109375 L 11.75 -54.109375 Z M 11.75 -32.25 "/></g></g></g><g fill="#7ed957" fill-opacity="1"><g transform="translate(307.09358, 324.287538)"><g><path d="M 25.34375 -16.75 C 22.332031 -16.65625 19.765625 -16.414062 17.640625 -16.03125 C 15.523438 -15.65625 13.800781 -15.160156 12.46875 -14.546875 C 11.132812 -13.929688 10.164062 -13.207031 9.5625 -12.375 C 8.96875 -11.539062 8.671875 -10.613281 8.671875 -9.59375 C 8.671875 -8.613281 8.828125 -7.765625 9.140625 -7.046875 C 9.460938 -6.335938 9.898438 -5.753906 10.453125 -5.296875 C 11.003906 -4.847656 11.648438 -4.519531 12.390625 -4.3125 C 13.140625 -4.101562 13.941406 -4 14.796875 -4 C 15.953125 -4 17.003906 -4.113281 17.953125 -4.34375 C 18.910156 -4.582031 19.8125 -4.921875 20.65625 -5.359375 C 21.507812 -5.804688 22.320312 -6.332031 23.09375 -6.9375 C 23.863281 -7.550781 24.613281 -8.25 25.34375 -9.03125 Z M 4.21875 -31.953125 C 6.28125 -33.941406 8.5 -35.425781 10.875 -36.40625 C 13.25 -37.382812 15.878906 -37.875 18.765625 -37.875 C 20.847656 -37.875 22.695312 -37.53125 24.3125 -36.84375 C 25.9375 -36.15625 27.296875 -35.195312 28.390625 -33.96875 C 29.492188 -32.75 30.328125 -31.269531 30.890625 -29.53125 C 31.453125 -27.789062 31.734375 -25.878906 31.734375 -23.796875 L 31.734375 0 L 28.84375 0 C 28.195312 0 27.703125 -0.101562 27.359375 -0.3125 C 27.023438 -0.519531 26.757812 -0.929688 26.5625 -1.546875 L 25.828125 -5.0625 C 24.847656 -4.15625 23.890625 -3.351562 22.953125 -2.65625 C 22.023438 -1.957031 21.046875 -1.367188 20.015625 -0.890625 C 18.992188 -0.421875 17.898438 -0.0546875 16.734375 0.203125 C 15.566406 0.460938 14.273438 0.59375 12.859375 0.59375 C 11.410156 0.59375 10.050781 0.390625 8.78125 -0.015625 C 7.507812 -0.421875 6.398438 -1.023438 5.453125 -1.828125 C 4.515625 -2.640625 3.769531 -3.664062 3.21875 -4.90625 C 2.664062 -6.144531 2.390625 -7.609375 2.390625 -9.296875 C 2.390625 -10.765625 2.789062 -12.175781 3.59375 -13.53125 C 4.40625 -14.894531 5.71875 -16.101562 7.53125 -17.15625 C 9.34375 -18.207031 11.703125 -19.066406 14.609375 -19.734375 C 17.523438 -20.410156 21.101562 -20.800781 25.34375 -20.90625 L 25.34375 -23.796875 C 25.34375 -26.691406 24.71875 -28.878906 23.46875 -30.359375 C 22.21875 -31.835938 20.394531 -32.578125 18 -32.578125 C 16.382812 -32.578125 15.03125 -32.375 13.9375 -31.96875 C 12.851562 -31.570312 11.910156 -31.117188 11.109375 -30.609375 C 10.316406 -30.109375 9.628906 -29.65625 9.046875 -29.25 C 8.472656 -28.851562 7.90625 -28.65625 7.34375 -28.65625 C 6.90625 -28.65625 6.523438 -28.769531 6.203125 -29 C 5.890625 -29.226562 5.625 -29.515625 5.40625 -29.859375 Z M 4.21875 -31.953125 "/></g></g></g><g fill="#7ed957" fill-opacity="1"><g transform="translate(343.128116, 324.287538)"><g><path d="M 16.609375 0.59375 C 13.671875 0.59375 11.410156 -0.222656 9.828125 -1.859375 C 8.242188 -3.503906 7.453125 -5.875 7.453125 -8.96875 L 7.453125 -31.734375 L 2.96875 -31.734375 C 2.582031 -31.734375 2.253906 -31.847656 1.984375 -32.078125 C 1.710938 -32.316406 1.578125 -32.679688 1.578125 -33.171875 L 1.578125 -35.78125 L 7.671875 -36.546875 L 9.1875 -48.046875 C 9.257812 -48.410156 9.421875 -48.707031 9.671875 -48.9375 C 9.929688 -49.175781 10.269531 -49.296875 10.6875 -49.296875 L 14 -49.296875 L 14 -36.484375 L 24.765625 -36.484375 L 24.765625 -31.734375 L 14 -31.734375 L 14 -9.40625 C 14 -7.832031 14.375 -6.664062 15.125 -5.90625 C 15.882812 -5.15625 16.867188 -4.78125 18.078125 -4.78125 C 18.765625 -4.78125 19.359375 -4.867188 19.859375 -5.046875 C 20.359375 -5.234375 20.789062 -5.4375 21.15625 -5.65625 C 21.519531 -5.875 21.832031 -6.070312 22.09375 -6.25 C 22.351562 -6.4375 22.582031 -6.53125 22.78125 -6.53125 C 23.125 -6.53125 23.425781 -6.328125 23.6875 -5.921875 L 25.609375 -2.796875 C 24.472656 -1.742188 23.109375 -0.914062 21.515625 -0.3125 C 19.929688 0.289062 18.296875 0.59375 16.609375 0.59375 Z M 16.609375 0.59375 "/></g></g></g><g clip-path="url(#3cd731af07)"><path fill="#10bb82" d="M 192 73.277344 C 235.898438 73.277344 271.488281 108.867188 271.488281 152.769531 C 271.488281 165.371094 268.5625 177.257812 263.363281 187.820312 C 261.933594 190.726562 261.417969 194.125 262.109375 197.496094 L 268.71875 229.710938 L 235.207031 223.4375 C 231.992188 222.835938 228.773438 223.328125 225.992188 224.648438 C 215.699219 229.523438 204.179688 232.257812 192 232.257812 C 148.097656 232.257812 112.507812 196.667969 112.507812 152.769531 C 112.507812 108.867188 148.097656 73.277344 192 73.277344 Z M 291.363281 152.769531 C 291.363281 97.890625 246.875 53.40625 192 53.40625 C 137.121094 53.40625 92.636719 97.890625 92.636719 152.769531 C 92.636719 207.644531 137.121094 252.132812 192 252.132812 C 206.632812 252.132812 220.554688 248.960938 233.089844 243.261719 L 272.332031 250.601562 C 282.738281 252.550781 291.800781 243.328125 289.671875 232.957031 L 281.90625 195.117188 C 287.972656 182.261719 291.363281 167.894531 291.363281 152.769531 Z M 291.363281 152.769531 " fill-opacity="1" fill-rule="evenodd"/></g><path fill="#10bb82" d="M 122.445312 152.769531 C 122.445312 141.792969 131.339844 132.894531 142.316406 132.894531 C 153.292969 132.894531 162.1875 141.792969 162.1875 152.769531 C 162.1875 163.742188 153.292969 172.640625 142.316406 172.640625 C 131.339844 172.640625 122.445312 163.742188 122.445312 152.769531 Z M 122.445312 152.769531 " fill-opacity="1" fill-rule="evenodd"/><path fill="#10bb82" d="M 172.125 152.769531 C 172.125 141.792969 181.023438 132.894531 192 132.894531 C 202.972656 132.894531 211.871094 141.792969 211.871094 152.769531 C 211.871094 163.742188 202.972656 172.640625 192 172.640625 C 181.023438 172.640625 172.125 163.742188 172.125 152.769531 Z M 172.125 152.769531 " fill-opacity="1" fill-rule="evenodd"/><path fill="#10bb82" d="M 221.808594 152.769531 C 221.808594 141.792969 230.703125 132.894531 241.679688 132.894531 C 252.65625 132.894531 261.550781 141.792969 261.550781 152.769531 C 261.550781 163.742188 252.65625 172.640625 241.679688 172.640625 C 230.703125 172.640625 221.808594 163.742188 221.808594 152.769531 Z M 221.808594 152.769531 " fill-opacity="1" fill-rule="evenodd"/><g clip-path="url(#5bf49f81ac)"><path fill="#7ed957" d="M 192 79.660156 C 232.375 79.660156 265.105469 112.394531 265.105469 152.769531 C 265.105469 164.359375 262.414062 175.292969 257.632812 185.007812 C 256.316406 187.679688 255.839844 190.800781 256.476562 193.902344 L 262.558594 223.53125 L 231.734375 217.761719 C 228.78125 217.210938 225.820312 217.660156 223.261719 218.875 C 213.792969 223.359375 203.203125 225.875 192 225.875 C 151.621094 225.875 118.890625 193.144531 118.890625 152.769531 C 118.890625 112.394531 151.621094 79.660156 192 79.660156 Z M 283.382812 152.769531 C 283.382812 102.300781 242.46875 61.386719 192 61.386719 C 141.527344 61.386719 100.617188 102.300781 100.617188 152.769531 C 100.617188 203.238281 141.527344 244.152344 192 244.152344 C 205.457031 244.152344 218.261719 241.234375 229.789062 235.992188 L 265.878906 242.746094 C 275.449219 244.535156 283.785156 236.054688 281.828125 226.515625 L 274.6875 191.71875 C 280.265625 179.890625 283.382812 166.679688 283.382812 152.769531 Z M 283.382812 152.769531 " fill-opacity="1" fill-rule="evenodd"/></g><path fill="#7ed957" d="M 128.03125 152.769531 C 128.03125 142.675781 136.214844 134.492188 146.308594 134.492188 C 156.402344 134.492188 164.582031 142.675781 164.582031 152.769531 C 164.582031 162.863281 156.402344 171.042969 146.308594 171.042969 C 136.214844 171.042969 128.03125 162.863281 128.03125 152.769531 Z M 128.03125 152.769531 " fill-opacity="1" fill-rule="evenodd"/><path fill="#7ed957" d="M 173.722656 152.769531 C 173.722656 142.675781 181.902344 134.492188 192 134.492188 C 202.09375 134.492188 210.273438 142.675781 210.273438 152.769531 C 210.273438 162.863281 202.09375 171.042969 192 171.042969 C 181.902344 171.042969 173.722656 162.863281 173.722656 152.769531 Z M 173.722656 152.769531 " fill-opacity="1" fill-rule="evenodd"/><path fill="#7ed957" d="M 219.414062 152.769531 C 219.414062 142.675781 227.59375 134.492188 237.691406 134.492188 C 247.785156 134.492188 255.964844 142.675781 255.964844 152.769531 C 255.964844 162.863281 247.785156 171.042969 237.691406 171.042969 C 227.59375 171.042969 219.414062 162.863281 219.414062 152.769531 Z M 219.414062 152.769531 " fill-opacity="1" fill-rule="evenodd"/></svg>