<svg xmlns="http://www.w3.org/2000/svg" xmlns:xlink="http://www.w3.org/1999/xlink" width="2048" zoomAndPan="magnify" viewBox="0 0 1536 319.499995" height="426" preserveAspectRatio="xMidYMid meet" version="1.0"><defs><g/><clipPath id="5d9520d561"><path d="M 1.199219 0 L 320.199219 0 L 320.199219 319 L 1.199219 319 Z M 1.199219 0 " clip-rule="nonzero"/></clipPath><clipPath id="a11199fce0"><path d="M 13.582031 12.382812 L 307.875 12.382812 L 307.875 306.671875 L 13.582031 306.671875 Z M 13.582031 12.382812 " clip-rule="nonzero"/></clipPath></defs><g fill="#10bb82" fill-opacity="1"><g transform="translate(348.449231, 254.908769)"><g><path d="M 94.136719 -61.480469 C 94.136719 -50.859375 92.808594 -41.210938 90.15625 -32.539062 C 87.394531 -23.523438 83.230469 -15.785156 77.664062 -9.332031 C 71.996094 -2.757812 64.957031 2.277344 56.550781 5.773438 C 48.351562 9.179688 38.953125 10.886719 28.347656 10.886719 C 23.671875 10.886719 19.074219 10.601562 14.558594 10.039062 C 10.0625 9.476562 5.375 8.597656 0.492188 7.398438 L -6.882812 5.585938 L -6.316406 -1.988281 C -6.070312 -5.25 -5.785156 -8.515625 -5.457031 -11.777344 C -5.144531 -14.894531 -4.875 -18.007812 -4.640625 -21.125 L -4.621094 -21.394531 L -4.582031 -21.667969 C -4.054688 -25.535156 -2.433594 -28.734375 0.285156 -31.265625 C 3.164062 -33.945312 6.855469 -35.285156 11.363281 -35.285156 C 13.46875 -35.285156 15.980469 -34.914062 18.898438 -34.171875 C 20.367188 -33.796875 22.398438 -33.613281 25 -33.613281 C 28.460938 -33.613281 31.4375 -34.078125 33.929688 -35.015625 C 35.933594 -35.765625 37.601562 -36.953125 38.933594 -38.578125 C 40.453125 -40.4375 41.648438 -43.023438 42.515625 -46.34375 C 43.515625 -50.183594 44.019531 -54.992188 44.019531 -60.765625 L 44.019531 -181.933594 L 94.136719 -181.933594 Z M 76.195312 -61.480469 L 76.195312 -172.960938 L 85.164062 -172.960938 L 85.164062 -163.992188 L 52.988281 -163.992188 L 52.988281 -172.960938 L 61.960938 -172.960938 L 61.960938 -60.765625 C 61.960938 -53.457031 61.265625 -47.140625 59.875 -41.8125 C 58.347656 -35.960938 55.992188 -31.089844 52.8125 -27.207031 C 49.4375 -23.09375 45.246094 -20.09375 40.230469 -18.214844 C 35.707031 -16.515625 30.628906 -15.667969 25 -15.667969 C 20.902344 -15.667969 17.390625 -16.039062 14.472656 -16.785156 C 13.007812 -17.15625 11.96875 -17.34375 11.363281 -17.34375 C 11.246094 -17.34375 11.15625 -17.339844 11.097656 -17.332031 C 11.136719 -17.335938 11.199219 -17.351562 11.28125 -17.378906 C 11.714844 -17.519531 12.121094 -17.769531 12.511719 -18.132812 C 12.738281 -18.34375 12.917969 -18.585938 13.054688 -18.863281 C 13.136719 -19.03125 13.183594 -19.15625 13.195312 -19.242188 L 4.304688 -20.453125 L 13.253906 -19.78125 C 13.007812 -16.519531 12.722656 -13.253906 12.394531 -9.992188 C 12.082031 -6.875 11.8125 -3.761719 11.578125 -0.644531 L 2.632812 -1.316406 L 4.769531 -10.027344 C 8.976562 -8.996094 12.980469 -8.242188 16.78125 -7.765625 C 20.558594 -7.292969 24.414062 -7.058594 28.347656 -7.058594 C 36.566406 -7.058594 43.667969 -8.304688 49.664062 -10.796875 C 55.453125 -13.203125 60.257812 -16.621094 64.078125 -21.050781 C 68 -25.597656 70.972656 -31.179688 73 -37.792969 C 75.128906 -44.75 76.195312 -52.648438 76.195312 -61.480469 Z M 76.195312 -61.480469 "/></g></g></g><g fill="#10bb82" fill-opacity="1"><g transform="translate(447.250639, 254.908769)"><g><path d="M 68.898438 -133.609375 C 79.128906 -133.609375 88.503906 -131.925781 97.019531 -128.554688 C 105.660156 -125.132812 113.078125 -120.257812 119.269531 -113.925781 C 125.46875 -107.585938 130.226562 -99.90625 133.539062 -90.890625 C 136.773438 -82.078125 138.394531 -72.3125 138.394531 -61.601562 C 138.394531 -50.808594 136.773438 -41.007812 133.539062 -32.191406 C 130.234375 -23.195312 125.492188 -15.492188 119.316406 -9.085938 C 113.113281 -2.648438 105.679688 2.28125 97.019531 5.710938 C 88.503906 9.082031 79.128906 10.765625 68.898438 10.765625 C 58.59375 10.765625 49.164062 9.082031 40.613281 5.714844 C 31.90625 2.289062 24.449219 -2.644531 18.242188 -9.085938 C 12.074219 -15.484375 7.316406 -23.171875 3.972656 -32.15625 C 0.6875 -40.980469 -0.957031 -50.796875 -0.957031 -61.601562 C -0.957031 -72.328125 0.6875 -82.101562 3.972656 -90.929688 C 7.324219 -99.929688 12.097656 -107.597656 18.285156 -113.925781 C 24.484375 -120.261719 31.925781 -125.140625 40.613281 -128.558594 C 49.164062 -131.925781 58.59375 -133.609375 68.898438 -133.609375 Z M 68.898438 -115.667969 C 60.863281 -115.667969 53.625 -114.398438 47.183594 -111.863281 C 40.878906 -109.382812 35.523438 -105.886719 31.113281 -101.378906 C 26.699219 -96.863281 23.253906 -91.292969 20.789062 -84.664062 C 18.253906 -77.859375 16.984375 -70.171875 16.984375 -61.601562 C 16.984375 -52.949219 18.253906 -45.222656 20.789062 -38.417969 C 23.261719 -31.769531 26.722656 -26.140625 31.160156 -21.535156 C 35.558594 -16.972656 40.898438 -13.453125 47.183594 -10.980469 C 53.625 -8.445312 60.863281 -7.175781 68.898438 -7.175781 C 76.847656 -7.175781 84.019531 -8.441406 90.417969 -10.972656 C 96.667969 -13.445312 101.992188 -16.96875 106.394531 -21.535156 C 110.824219 -26.132812 114.257812 -31.746094 116.695312 -38.378906 C 119.199219 -45.195312 120.449219 -52.9375 120.449219 -61.601562 C 120.449219 -70.1875 119.199219 -77.886719 116.695312 -84.703125 C 114.265625 -91.316406 110.847656 -96.875 106.441406 -101.378906 C 102.03125 -105.890625 96.6875 -109.386719 90.417969 -111.871094 C 84.019531 -114.402344 76.847656 -115.667969 68.898438 -115.667969 Z M 68.898438 -29.902344 C 72.707031 -29.902344 75.914062 -30.492188 78.511719 -31.671875 C 80.828125 -32.726562 82.746094 -34.3125 84.265625 -36.4375 C 88.054688 -41.734375 89.949219 -50.042969 89.949219 -61.363281 C 89.949219 -72.699219 88.046875 -81.058594 84.238281 -86.445312 C 82.714844 -88.601562 80.792969 -90.210938 78.476562 -91.277344 C 75.886719 -92.464844 72.695312 -93.058594 68.898438 -93.058594 C 65.011719 -93.058594 61.738281 -92.457031 59.078125 -91.246094 C 56.699219 -90.167969 54.730469 -88.535156 53.171875 -86.351562 C 49.300781 -80.933594 47.367188 -72.601562 47.367188 -61.363281 C 47.367188 -50.140625 49.292969 -41.863281 53.144531 -36.535156 C 54.699219 -34.382812 56.664062 -32.769531 59.042969 -31.703125 C 61.710938 -30.503906 64.996094 -29.902344 68.898438 -29.902344 Z M 68.898438 -11.960938 C 62.433594 -11.960938 56.695312 -13.085938 51.6875 -15.335938 C 46.390625 -17.714844 42.027344 -21.277344 38.601562 -26.023438 C 32.484375 -34.492188 29.425781 -46.269531 29.425781 -61.363281 C 29.425781 -76.4375 32.472656 -88.242188 38.570312 -96.777344 C 41.996094 -101.574219 46.355469 -105.171875 51.652344 -107.582031 C 56.671875 -109.863281 62.417969 -111.003906 68.898438 -111.003906 C 75.308594 -111.003906 80.996094 -109.863281 85.960938 -107.582031 C 91.203125 -105.175781 95.511719 -101.585938 98.890625 -96.804688 C 104.890625 -88.3125 107.890625 -76.5 107.890625 -61.363281 C 107.890625 -46.207031 104.882812 -34.417969 98.863281 -26 C 95.476562 -21.265625 91.164062 -17.710938 85.925781 -15.335938 C 80.972656 -13.085938 75.292969 -11.960938 68.898438 -11.960938 Z M 68.898438 -11.960938 "/></g></g></g><g fill="#10bb82" fill-opacity="1"><g transform="translate(580.381384, 254.908769)"><g><path d="M 134.324219 -119.199219 L 67.457031 37.257812 C 65.976562 40.757812 63.917969 43.523438 61.28125 45.558594 C 58.269531 47.882812 54.308594 49.042969 49.402344 49.042969 L 13.3125 49.042969 L 42.226562 -13 L 50.359375 -9.210938 L 42.136719 -5.617188 L -12.996094 -131.695312 L 26.675781 -131.695312 C 31.183594 -131.695312 34.929688 -130.425781 37.921875 -127.890625 C 40.277344 -125.890625 42.050781 -123.546875 43.246094 -120.867188 L 43.296875 -120.746094 L 69.425781 -56.988281 C 70.4375 -54.503906 71.289062 -52.015625 71.980469 -49.527344 C 72.597656 -47.300781 73.195312 -45.03125 73.773438 -42.726562 L 65.070312 -40.550781 L 56.535156 -43.316406 L 58.6875 -49.957031 C 59.476562 -52.363281 60.351562 -54.742188 61.308594 -57.089844 L 85.890625 -120.464844 C 87.214844 -123.769531 89.339844 -126.449219 92.269531 -128.507812 C 95.289062 -130.632812 98.664062 -131.695312 102.390625 -131.695312 L 139.664062 -131.695312 Z M 117.824219 -126.25 L 126.074219 -122.722656 L 126.074219 -113.753906 L 102.390625 -113.753906 C 102.445312 -113.753906 102.511719 -113.777344 102.582031 -113.828125 C 102.546875 -113.804688 102.523438 -113.785156 102.503906 -113.765625 C 102.507812 -113.769531 102.511719 -113.777344 102.523438 -113.789062 C 102.550781 -113.824219 102.585938 -113.886719 102.621094 -113.976562 L 77.921875 -50.320312 C 77.125 -48.363281 76.402344 -46.398438 75.757812 -44.421875 L 63.953125 -8.027344 L 56.367188 -38.375 C 55.828125 -40.53125 55.269531 -42.648438 54.691406 -44.726562 C 54.1875 -46.546875 53.5625 -48.363281 52.820312 -50.183594 L 26.746094 -113.820312 L 35.046875 -117.222656 L 26.847656 -113.578125 C 26.765625 -113.765625 26.585938 -113.976562 26.3125 -114.207031 C 26.589844 -113.972656 26.863281 -113.8125 27.128906 -113.730469 C 27.082031 -113.746094 26.929688 -113.753906 26.675781 -113.753906 L 0.71875 -113.753906 L 0.71875 -122.722656 L 8.9375 -126.320312 L 60.199219 -9.09375 L 35.523438 43.859375 L 27.390625 40.070312 L 27.390625 31.097656 L 49.402344 31.097656 C 50.09375 31.097656 50.613281 31.054688 50.957031 30.96875 C 50.820312 31.003906 50.605469 31.132812 50.320312 31.351562 L 50.308594 31.359375 C 50.34375 31.324219 50.378906 31.277344 50.421875 31.21875 C 50.597656 30.976562 50.777344 30.640625 50.960938 30.207031 Z M 117.824219 -126.25 "/></g></g></g><g fill="#10bb82" fill-opacity="1"><g transform="translate(700.593772, 254.908769)"><g/></g></g><g fill="#10bb82" fill-opacity="1"><g transform="translate(758.726305, 254.908769)"><g><path d="M 54.183594 -122.722656 L 54.183594 8.972656 L 6.578125 8.972656 L 6.578125 -131.695312 L 54.183594 -131.695312 Z M 36.242188 -122.722656 L 45.214844 -122.722656 L 45.214844 -113.753906 L 15.550781 -113.753906 L 15.550781 -122.722656 L 24.519531 -122.722656 L 24.519531 0 L 15.550781 0 L 15.550781 -8.972656 L 45.214844 -8.972656 L 45.214844 0 L 36.242188 0 Z M 58.253906 -158.488281 C 58.253906 -154.617188 57.457031 -150.964844 55.863281 -147.535156 C 54.363281 -144.308594 52.367188 -141.472656 49.867188 -139.03125 C 47.359375 -136.582031 44.441406 -134.640625 41.109375 -133.207031 C 37.664062 -131.71875 34.007812 -130.976562 30.144531 -130.976562 C 26.335938 -130.976562 22.722656 -131.726562 19.300781 -133.226562 C 16 -134.675781 13.113281 -136.636719 10.640625 -139.105469 C 8.183594 -141.5625 6.234375 -144.414062 4.785156 -147.65625 C 3.269531 -151.050781 2.511719 -154.664062 2.511719 -158.488281 C 2.511719 -162.355469 3.253906 -166.011719 4.738281 -169.457031 C 6.191406 -172.820312 8.15625 -175.746094 10.640625 -178.230469 C 13.113281 -180.699219 16 -182.660156 19.300781 -184.109375 C 22.722656 -185.609375 26.335938 -186.359375 30.144531 -186.359375 C 34.007812 -186.359375 37.664062 -185.617188 41.109375 -184.132812 C 44.441406 -182.695312 47.359375 -180.753906 49.867188 -178.304688 C 52.394531 -175.835938 54.410156 -172.925781 55.914062 -169.574219 C 57.472656 -166.09375 58.253906 -162.398438 58.253906 -158.488281 Z M 40.308594 -158.488281 C 40.308594 -159.839844 40.054688 -161.089844 39.539062 -162.234375 C 38.96875 -163.511719 38.230469 -164.585938 37.332031 -165.46875 C 36.410156 -166.367188 35.300781 -167.097656 34.007812 -167.652344 C 32.828125 -168.164062 31.539062 -168.417969 30.144531 -168.417969 C 28.84375 -168.417969 27.632812 -168.167969 26.507812 -167.675781 C 25.269531 -167.132812 24.207031 -166.421875 23.328125 -165.542969 C 22.464844 -164.675781 21.761719 -163.613281 21.214844 -162.355469 C 20.707031 -161.175781 20.453125 -159.886719 20.453125 -158.488281 C 20.453125 -157.210938 20.691406 -156.039062 21.171875 -154.96875 C 21.714844 -153.746094 22.4375 -152.6875 23.328125 -151.792969 C 24.207031 -150.914062 25.269531 -150.203125 26.507812 -149.660156 C 27.632812 -149.167969 28.84375 -148.917969 30.144531 -148.917969 C 31.539062 -148.917969 32.828125 -149.175781 34.007812 -149.683594 C 35.300781 -150.238281 36.410156 -150.96875 37.332031 -151.867188 C 38.261719 -152.777344 39.015625 -153.851562 39.589844 -155.089844 C 40.070312 -156.125 40.308594 -157.257812 40.308594 -158.488281 Z M 40.308594 -158.488281 "/></g></g></g><g fill="#10bb82" fill-opacity="1"><g transform="translate(819.49034, 254.908769)"><g><path d="M 35.878906 -113.996094 C 38.628906 -116.746094 41.53125 -119.292969 44.59375 -121.644531 C 47.835938 -124.136719 51.273438 -126.253906 54.90625 -128 C 58.554688 -129.753906 62.445312 -131.121094 66.574219 -132.109375 C 70.769531 -133.109375 75.292969 -133.609375 80.140625 -133.609375 C 88.09375 -133.609375 95.234375 -132.222656 101.566406 -129.445312 C 108.019531 -126.613281 113.429688 -122.617188 117.796875 -117.449219 C 122.039062 -112.425781 125.238281 -106.488281 127.394531 -99.640625 C 129.464844 -93.0625 130.5 -85.882812 130.5 -78.109375 L 130.5 8.972656 L 83.011719 8.972656 L 83.011719 -78.109375 C 83.011719 -83.433594 81.992188 -87.320312 79.953125 -89.761719 C 78.316406 -91.722656 75.390625 -92.699219 71.171875 -92.699219 C 67.523438 -92.699219 64.113281 -91.878906 60.941406 -90.238281 C 57.300781 -88.351562 53.8125 -85.742188 50.480469 -82.410156 L 44.136719 -88.753906 L 53.109375 -88.753906 L 53.109375 8.972656 L 5.621094 8.972656 L 5.621094 -131.695312 L 32.65625 -131.695312 C 36.484375 -131.695312 39.808594 -130.691406 42.625 -128.679688 C 45.460938 -126.652344 47.488281 -123.816406 48.703125 -120.179688 L 48.863281 -119.6875 L 51.003906 -109.496094 L 42.222656 -107.652344 Z M 36.847656 -89.589844 L 31.410156 -115.5 L 40.191406 -117.339844 L 31.679688 -114.503906 C 31.652344 -114.582031 31.628906 -114.640625 31.609375 -114.683594 C 31.617188 -114.667969 31.632812 -114.644531 31.660156 -114.605469 C 31.789062 -114.414062 31.96875 -114.238281 32.195312 -114.078125 C 32.414062 -113.921875 32.628906 -113.8125 32.835938 -113.753906 C 32.867188 -113.746094 32.882812 -113.742188 32.886719 -113.742188 C 32.828125 -113.75 32.75 -113.753906 32.65625 -113.753906 L 14.59375 -113.753906 L 14.59375 -122.722656 L 23.5625 -122.722656 L 23.5625 0 L 14.59375 0 L 14.59375 -8.972656 L 44.136719 -8.972656 L 44.136719 0 L 35.167969 0 L 35.167969 -92.46875 L 37.792969 -95.097656 C 42.4375 -99.738281 47.402344 -103.429688 52.691406 -106.167969 C 58.449219 -109.152344 64.609375 -110.644531 71.171875 -110.644531 C 75.8125 -110.644531 79.964844 -109.921875 83.632812 -108.480469 C 87.667969 -106.894531 91.03125 -104.488281 93.726562 -101.261719 C 98.546875 -95.492188 100.953125 -87.773438 100.953125 -78.109375 L 100.953125 0 L 91.984375 0 L 91.984375 -8.972656 L 121.527344 -8.972656 L 121.527344 0 L 112.554688 0 L 112.554688 -78.109375 C 112.554688 -84.046875 111.796875 -89.429688 110.277344 -94.253906 C 108.84375 -98.808594 106.78125 -102.683594 104.089844 -105.871094 C 101.515625 -108.917969 98.273438 -111.296875 94.363281 -113.011719 C 90.328125 -114.78125 85.585938 -115.667969 80.140625 -115.667969 C 76.699219 -115.667969 73.566406 -115.328125 70.742188 -114.65625 C 67.855469 -113.96875 65.167969 -113.023438 62.675781 -111.828125 C 60.164062 -110.621094 57.78125 -109.152344 55.523438 -107.414062 C 53.082031 -105.539062 50.761719 -103.503906 48.566406 -101.308594 Z M 36.847656 -89.589844 "/></g></g></g><g fill="#10bb82" fill-opacity="1"><g transform="translate(954.415278, 254.908769)"><g/></g></g><g fill="#10bb82" fill-opacity="1"><g transform="translate(1012.547811, 254.908769)"><g><path d="M 138.035156 -49.757812 C 142.265625 -49.757812 145.9375 -48.207031 149.042969 -45.097656 L 149.171875 -44.96875 L 167.222656 -25.386719 L 162.359375 -19.363281 C 154.445312 -9.5625 144.71875 -2.058594 133.171875 3.152344 C 121.753906 8.308594 108.222656 10.886719 92.582031 10.886719 C 78.515625 10.886719 65.796875 8.449219 54.421875 3.582031 C 43.011719 -1.300781 33.242188 -8.117188 25.125 -16.863281 C 17.03125 -25.578125 10.84375 -35.9375 6.5625 -47.941406 C 2.347656 -59.761719 0.238281 -72.609375 0.238281 -86.480469 C 0.238281 -100.585938 2.511719 -113.558594 7.054688 -125.398438 C 11.636719 -137.339844 18.117188 -147.652344 26.496094 -156.34375 C 34.894531 -165.050781 44.886719 -171.816406 56.480469 -176.640625 C 68.03125 -181.445312 80.742188 -183.847656 94.613281 -183.847656 C 108.429688 -183.847656 120.785156 -181.535156 131.671875 -176.914062 C 142.476562 -172.328125 151.710938 -166.292969 159.375 -158.804688 L 164.898438 -153.410156 L 149.621094 -132.195312 L 142.339844 -137.4375 L 149.804688 -132.460938 C 148.566406 -130.601562 147.007812 -128.996094 145.128906 -127.644531 C 142.566406 -125.800781 139.445312 -124.875 135.761719 -124.875 C 133.074219 -124.875 130.4375 -125.566406 127.84375 -126.941406 C 126.320312 -127.75 124.6875 -128.730469 122.9375 -129.882812 C 121.523438 -130.8125 119.875 -131.839844 117.988281 -132.972656 C 116.453125 -133.894531 114.621094 -134.757812 112.488281 -135.566406 C 110.332031 -136.382812 107.765625 -137.082031 104.796875 -137.664062 C 101.894531 -138.230469 98.460938 -138.511719 94.496094 -138.511719 C 87.988281 -138.511719 82.089844 -137.378906 76.796875 -135.113281 C 71.609375 -132.890625 67.148438 -129.667969 63.414062 -125.449219 C 59.589844 -121.128906 56.59375 -115.773438 54.429688 -109.378906 C 52.191406 -102.777344 51.074219 -95.144531 51.074219 -86.480469 C 51.074219 -77.804688 52.269531 -70.171875 54.664062 -63.585938 C 57.011719 -57.117188 60.144531 -51.726562 64.058594 -47.417969 C 67.890625 -43.191406 72.402344 -39.960938 77.59375 -37.722656 C 82.839844 -35.460938 88.511719 -34.328125 94.613281 -34.328125 C 98.597656 -34.328125 102.167969 -34.542969 105.316406 -34.964844 C 108.273438 -35.363281 110.960938 -35.984375 113.386719 -36.824219 C 115.765625 -37.648438 118.015625 -38.710938 120.132812 -40.007812 C 122.324219 -41.347656 124.523438 -43.023438 126.738281 -45.035156 C 128.160156 -46.3125 129.671875 -47.355469 131.269531 -48.15625 C 133.410156 -49.226562 135.664062 -49.757812 138.035156 -49.757812 Z M 138.035156 -31.816406 C 138.488281 -31.816406 138.910156 -31.914062 139.296875 -32.105469 C 139.144531 -32.03125 138.980469 -31.914062 138.804688 -31.757812 C 135.757812 -28.984375 132.652344 -26.632812 129.5 -24.703125 C 126.277344 -22.730469 122.863281 -21.121094 119.261719 -19.871094 C 115.707031 -18.640625 111.855469 -17.742188 107.714844 -17.183594 C 103.769531 -16.652344 99.402344 -16.386719 94.613281 -16.386719 C 86.042969 -16.386719 78 -18.007812 70.488281 -21.246094 C 62.917969 -24.511719 56.347656 -29.214844 50.773438 -35.355469 C 45.277344 -41.410156 40.953125 -48.78125 37.796875 -57.460938 C 34.6875 -66.027344 33.132812 -75.699219 33.132812 -86.480469 C 33.132812 -97.113281 34.566406 -106.667969 37.433594 -115.136719 C 40.375 -123.8125 44.554688 -131.21875 49.980469 -137.34375 C 55.496094 -143.570312 62.078125 -148.324219 69.730469 -151.601562 C 77.277344 -154.839844 85.53125 -156.457031 94.496094 -156.457031 C 99.621094 -156.457031 104.199219 -156.0625 108.238281 -155.273438 C 112.203125 -154.496094 115.738281 -153.519531 118.84375 -152.34375 C 121.976562 -151.160156 124.769531 -149.832031 127.21875 -148.359375 C 129.320312 -147.097656 131.179688 -145.9375 132.796875 -144.871094 C 134.078125 -144.027344 135.234375 -143.332031 136.261719 -142.789062 C 136.308594 -142.765625 136.34375 -142.746094 136.371094 -142.734375 C 136.359375 -142.742188 136.339844 -142.746094 136.308594 -142.753906 C 136.152344 -142.796875 135.96875 -142.820312 135.761719 -142.820312 C 135.859375 -142.820312 135.933594 -142.824219 135.984375 -142.828125 C 135.957031 -142.824219 135.910156 -142.816406 135.84375 -142.796875 C 135.453125 -142.695312 135.054688 -142.5 134.648438 -142.207031 C 134.761719 -142.289062 134.839844 -142.359375 134.875 -142.414062 L 134.964844 -142.546875 L 145.824219 -157.628906 L 153.105469 -152.386719 L 146.835938 -145.96875 C 140.785156 -151.882812 133.394531 -156.691406 124.660156 -160.398438 C 116.011719 -164.070312 105.996094 -165.90625 94.613281 -165.90625 C 83.128906 -165.90625 72.714844 -163.960938 63.371094 -160.074219 C 54.074219 -156.203125 46.085938 -150.808594 39.410156 -143.886719 C 32.71875 -136.949219 27.515625 -128.640625 23.804688 -118.972656 C 20.054688 -109.199219 18.179688 -98.371094 18.179688 -86.480469 C 18.179688 -74.675781 19.941406 -63.839844 23.460938 -53.96875 C 26.914062 -44.28125 31.851562 -35.984375 38.273438 -29.070312 C 44.664062 -22.183594 52.402344 -16.800781 61.484375 -12.914062 C 70.601562 -9.007812 80.96875 -7.058594 92.582031 -7.058594 C 105.648438 -7.058594 116.71875 -9.105469 125.792969 -13.199219 C 134.738281 -17.238281 142.277344 -23.050781 148.398438 -30.636719 L 155.378906 -25 L 148.78125 -18.917969 L 136.101562 -32.675781 L 142.699219 -38.753906 L 136.355469 -32.410156 C 136.480469 -32.289062 136.671875 -32.167969 136.933594 -32.054688 C 137.296875 -31.898438 137.664062 -31.816406 138.035156 -31.816406 Z M 138.035156 -31.816406 "/></g></g></g><g fill="#10bb82" fill-opacity="1"><g transform="translate(1170.797575, 254.908769)"><g><path d="M 38.015625 -116.125 C 43.457031 -121.203125 49.453125 -125.335938 56.003906 -128.519531 C 62.984375 -131.914062 71.03125 -133.609375 80.140625 -133.609375 C 88.09375 -133.609375 95.234375 -132.222656 101.566406 -129.445312 C 108.019531 -126.613281 113.429688 -122.617188 117.796875 -117.449219 C 122.039062 -112.425781 125.238281 -106.488281 127.394531 -99.640625 C 129.464844 -93.0625 130.5 -85.882812 130.5 -78.109375 L 130.5 8.972656 L 83.011719 8.972656 L 83.011719 -78.109375 C 83.011719 -83.433594 81.992188 -87.320312 79.953125 -89.761719 C 78.316406 -91.722656 75.390625 -92.699219 71.171875 -92.699219 C 67.523438 -92.699219 64.113281 -91.878906 60.941406 -90.238281 C 57.300781 -88.351562 53.8125 -85.742188 50.480469 -82.410156 L 44.136719 -88.753906 L 53.109375 -88.753906 L 53.109375 8.972656 L 5.621094 8.972656 L 5.621094 -186.71875 L 53.109375 -186.71875 L 53.109375 -109.566406 L 44.136719 -109.566406 Z M 35.167969 -88.921875 L 35.167969 -177.746094 L 44.136719 -177.746094 L 44.136719 -168.773438 L 14.59375 -168.773438 L 14.59375 -177.746094 L 23.5625 -177.746094 L 23.5625 0 L 14.59375 0 L 14.59375 -8.972656 L 44.136719 -8.972656 L 44.136719 0 L 35.167969 0 L 35.167969 -92.46875 L 37.792969 -95.097656 C 42.4375 -99.738281 47.402344 -103.429688 52.691406 -106.167969 C 58.449219 -109.152344 64.609375 -110.644531 71.171875 -110.644531 C 75.8125 -110.644531 79.964844 -109.921875 83.632812 -108.480469 C 87.667969 -106.894531 91.03125 -104.488281 93.726562 -101.261719 C 98.546875 -95.492188 100.953125 -87.773438 100.953125 -78.109375 L 100.953125 0 L 91.984375 0 L 91.984375 -8.972656 L 121.527344 -8.972656 L 121.527344 0 L 112.554688 0 L 112.554688 -78.109375 C 112.554688 -84.046875 111.796875 -89.429688 110.277344 -94.253906 C 108.84375 -98.808594 106.78125 -102.683594 104.089844 -105.871094 C 101.515625 -108.917969 98.273438 -111.296875 94.363281 -113.011719 C 90.328125 -114.78125 85.585938 -115.667969 80.140625 -115.667969 C 73.78125 -115.667969 68.351562 -114.570312 63.847656 -112.382812 C 58.917969 -109.984375 54.386719 -106.859375 50.257812 -103.007812 Z M 35.167969 -88.921875 "/></g></g></g><g fill="#10bb82" fill-opacity="1"><g transform="translate(1305.722467, 254.908769)"><g><path d="M 79.84375 -43.429688 C 71.71875 -43.050781 64.945312 -42.359375 59.523438 -41.355469 C 54.480469 -40.421875 50.558594 -39.289062 47.761719 -37.953125 C 45.714844 -36.980469 44.390625 -36.042969 43.785156 -35.152344 C 43.304688 -34.441406 43.0625 -33.6875 43.0625 -32.894531 C 43.0625 -31.492188 43.21875 -30.414062 43.53125 -29.65625 C 43.652344 -29.359375 43.800781 -29.148438 43.972656 -29.023438 C 45.46875 -27.9375 47.71875 -27.390625 50.714844 -27.390625 C 55.375 -27.390625 59.292969 -28.175781 62.460938 -29.75 C 65.933594 -31.46875 69.414062 -34.171875 72.90625 -37.863281 L 79.421875 -31.699219 L 70.453125 -31.699219 L 70.453125 -52.390625 L 79.421875 -52.390625 Z M 88.394531 -61.792969 L 88.394531 -28.125 L 85.941406 -25.53125 C 80.980469 -20.289062 75.808594 -16.335938 70.429688 -13.671875 C 64.75 -10.855469 58.175781 -9.449219 50.714844 -9.449219 C 43.828125 -9.449219 38.0625 -11.136719 33.417969 -14.515625 C 30.519531 -16.621094 28.363281 -19.382812 26.953125 -22.792969 C 25.730469 -25.746094 25.117188 -29.113281 25.117188 -32.894531 C 25.117188 -37.363281 26.390625 -41.472656 28.9375 -45.226562 C 31.363281 -48.800781 35.0625 -51.773438 40.035156 -54.148438 C 44.253906 -56.164062 49.664062 -57.78125 56.261719 -59 C 62.484375 -60.152344 70.066406 -60.933594 79.003906 -61.351562 Z M 5.664062 -112.238281 C 21.492188 -126.722656 40.496094 -133.96875 62.679688 -133.96875 C 71.046875 -133.96875 78.613281 -132.5625 85.378906 -129.753906 C 92.234375 -126.902344 98.058594 -122.914062 102.847656 -117.78125 C 107.613281 -112.675781 111.222656 -106.617188 113.671875 -99.605469 C 116.039062 -92.828125 117.222656 -85.460938 117.222656 -77.511719 L 117.222656 8.972656 L 94.855469 8.972656 C 90.519531 8.972656 86.921875 8.179688 84.054688 6.597656 C 80.527344 4.644531 77.949219 1.304688 76.324219 -3.421875 L 76.261719 -3.601562 L 73.574219 -12.632812 L 82.175781 -15.191406 L 88.167969 -8.515625 C 84.8125 -5.503906 81.527344 -2.847656 78.308594 -0.542969 C 74.871094 1.917969 71.289062 3.988281 67.554688 5.667969 C 63.773438 7.371094 59.746094 8.667969 55.480469 9.558594 C 51.246094 10.441406 46.628906 10.886719 41.625 10.886719 C 35.515625 10.886719 29.824219 10.046875 24.550781 8.371094 C 18.980469 6.597656 14.128906 3.902344 10 0.292969 C 5.777344 -3.402344 2.519531 -7.957031 0.230469 -13.371094 C -1.996094 -18.632812 -3.109375 -24.625 -3.109375 -31.339844 C -3.109375 -35.429688 -2.433594 -39.476562 -1.082031 -43.480469 C 0.316406 -47.625 2.558594 -51.523438 5.640625 -55.183594 C 8.550781 -58.636719 12.242188 -61.835938 16.710938 -64.785156 C 21.109375 -67.683594 26.410156 -70.175781 32.609375 -72.257812 C 38.542969 -74.25 45.382812 -75.863281 53.132812 -77.097656 C 60.78125 -78.316406 69.46875 -79.050781 79.195312 -79.300781 L 79.421875 -70.332031 L 70.453125 -70.332031 L 70.453125 -77.511719 C 70.453125 -83.449219 69.453125 -87.542969 67.457031 -89.789062 C 65.730469 -91.730469 62.902344 -92.699219 58.96875 -92.699219 C 55.214844 -92.699219 52.246094 -92.3125 50.066406 -91.542969 C 47.445312 -90.613281 45.183594 -89.59375 43.273438 -88.480469 C 40.859375 -87.070312 38.664062 -85.800781 36.6875 -84.671875 C 33.355469 -82.769531 29.699219 -81.816406 25.71875 -81.816406 C 21.648438 -81.816406 18.101562 -82.953125 15.070312 -85.226562 C 12.71875 -86.988281 10.804688 -89.078125 9.332031 -91.492188 L 9.234375 -91.644531 L 0.433594 -107.449219 Z M 17.777344 -99 L 11.722656 -105.621094 L 19.558594 -109.984375 L 24.824219 -100.535156 L 16.984375 -96.167969 L 24.640625 -100.847656 C 24.917969 -100.390625 25.320312 -99.96875 25.835938 -99.578125 C 25.71875 -99.667969 25.597656 -99.730469 25.476562 -99.765625 L 25.472656 -99.773438 C 25.535156 -99.761719 25.617188 -99.757812 25.71875 -99.757812 C 26.519531 -99.757812 27.210938 -99.921875 27.785156 -100.25 C 29.714844 -101.355469 31.867188 -102.597656 34.234375 -103.980469 C 37.113281 -105.65625 40.390625 -107.148438 44.070312 -108.453125 C 48.191406 -109.914062 53.15625 -110.644531 58.96875 -110.644531 C 63.402344 -110.644531 67.410156 -109.945312 70.988281 -108.550781 C 74.863281 -107.039062 78.15625 -104.761719 80.867188 -101.710938 C 85.886719 -96.0625 88.394531 -87.996094 88.394531 -77.511719 L 88.394531 -61.589844 L 79.652344 -61.363281 C 70.71875 -61.136719 62.820312 -60.472656 55.957031 -59.378906 C 49.191406 -58.300781 43.3125 -56.925781 38.320312 -55.25 C 33.597656 -53.664062 29.6875 -51.847656 26.589844 -49.804688 C 23.5625 -47.8125 21.152344 -45.75 19.359375 -43.617188 C 17.738281 -41.695312 16.589844 -39.734375 15.914062 -37.738281 C 15.195312 -35.601562 14.832031 -33.464844 14.832031 -31.339844 C 14.832031 -27.050781 15.472656 -23.390625 16.753906 -20.359375 C 17.972656 -17.480469 19.660156 -15.097656 21.816406 -13.210938 C 24.066406 -11.238281 26.792969 -9.746094 29.992188 -8.726562 C 33.492188 -7.613281 37.371094 -7.058594 41.625 -7.058594 C 45.394531 -7.058594 48.789062 -7.375 51.8125 -8.003906 C 54.804688 -8.628906 57.597656 -9.523438 60.191406 -10.691406 C 62.839844 -11.882812 65.394531 -13.363281 67.859375 -15.128906 C 70.542969 -17.050781 73.316406 -19.296875 76.183594 -21.867188 L 86.734375 -31.335938 L 93.40625 -8.894531 L 84.804688 -6.339844 L 93.289062 -9.257812 C 93.453125 -8.789062 93.585938 -8.476562 93.691406 -8.328125 C 93.496094 -8.601562 93.179688 -8.863281 92.734375 -9.109375 C 92.652344 -9.152344 92.59375 -9.179688 92.558594 -9.195312 C 92.625 -9.171875 92.726562 -9.144531 92.859375 -9.121094 C 93.371094 -9.019531 94.035156 -8.972656 94.855469 -8.972656 L 108.25 -8.972656 L 108.25 0 L 99.28125 0 L 99.28125 -77.511719 C 99.28125 -83.433594 98.429688 -88.828125 96.730469 -93.691406 C 95.113281 -98.324219 92.78125 -102.273438 89.730469 -105.539062 C 86.707031 -108.777344 82.960938 -111.328125 78.492188 -113.183594 C 73.933594 -115.078125 68.660156 -116.027344 62.679688 -116.027344 C 45.144531 -116.027344 30.179688 -110.351562 17.777344 -99 Z M 17.777344 -99 "/></g></g></g><g fill="#10bb82" fill-opacity="1"><g transform="translate(1425.456348, 254.908769)"><g><path d="M 55.5 10.886719 C 42.242188 10.886719 31.878906 6.941406 24.40625 -0.949219 C 17.066406 -8.699219 13.398438 -19.066406 13.398438 -32.054688 L 13.398438 -100.59375 L 22.367188 -100.59375 L 22.367188 -91.625 L 9.808594 -91.625 C 5.863281 -91.625 2.472656 -92.941406 -0.363281 -95.578125 C -3.390625 -98.386719 -4.90625 -102.132812 -4.90625 -106.816406 L -4.90625 -126.160156 L 22.355469 -130.621094 L 23.804688 -121.765625 L 14.984375 -123.40625 L 21.253906 -157.167969 L 21.320312 -157.433594 C 22.214844 -161.015625 24.027344 -163.878906 26.753906 -166.019531 C 29.496094 -168.175781 32.777344 -169.253906 36.601562 -169.253906 L 60.882812 -169.253906 L 60.882812 -121.648438 L 51.914062 -121.648438 L 51.914062 -130.617188 L 93.65625 -130.617188 L 93.65625 -91.625 L 51.914062 -91.625 L 51.914062 -100.59375 L 60.882812 -100.59375 L 60.882812 -34.089844 C 60.882812 -33.089844 60.980469 -32.28125 61.175781 -31.660156 C 61.269531 -31.359375 61.375 -31.140625 61.492188 -31.007812 C 61.511719 -30.984375 61.527344 -30.96875 61.53125 -30.964844 L 61.523438 -30.972656 C 61.699219 -30.898438 62.003906 -30.859375 62.4375 -30.859375 C 63.242188 -30.859375 63.777344 -30.90625 64.042969 -31.003906 C 64.882812 -31.300781 65.578125 -31.59375 66.125 -31.875 C 66.859375 -32.261719 67.503906 -32.621094 68.046875 -32.953125 C 70.199219 -34.269531 72.476562 -34.925781 74.878906 -34.925781 C 77.824219 -34.925781 80.390625 -34.070312 82.574219 -32.351562 C 83.785156 -31.402344 84.953125 -30.152344 86.082031 -28.601562 L 86.28125 -28.324219 L 99.394531 -7.058594 L 93.421875 -2.078125 C 88.238281 2.242188 82.3125 5.496094 75.644531 7.6875 C 69.152344 9.820312 62.4375 10.886719 55.5 10.886719 Z M 55.5 -7.058594 C 60.523438 -7.058594 65.371094 -7.824219 70.042969 -9.359375 C 74.542969 -10.839844 78.503906 -13.003906 81.933594 -15.863281 L 87.675781 -8.972656 L 80.039062 -4.261719 L 71.191406 -18.617188 L 78.824219 -23.324219 L 71.570312 -18.046875 C 71.441406 -18.222656 71.339844 -18.355469 71.261719 -18.441406 C 71.296875 -18.398438 71.375 -18.335938 71.488281 -18.242188 C 72.558594 -17.40625 73.6875 -16.984375 74.878906 -16.984375 C 75.84375 -16.984375 76.683594 -17.203125 77.402344 -17.644531 C 76.511719 -17.097656 75.519531 -16.542969 74.421875 -15.96875 C 73.132812 -15.296875 71.675781 -14.671875 70.042969 -14.09375 C 67.835938 -13.308594 65.300781 -12.917969 62.4375 -12.917969 C 59.601562 -12.917969 56.988281 -13.417969 54.59375 -14.421875 C 52.019531 -15.496094 49.808594 -17.101562 47.957031 -19.230469 C 44.613281 -23.070312 42.941406 -28.023438 42.941406 -34.089844 L 42.941406 -109.566406 L 84.6875 -109.566406 L 84.6875 -100.59375 L 75.714844 -100.59375 L 75.714844 -121.648438 L 84.6875 -121.648438 L 84.6875 -112.675781 L 42.941406 -112.675781 L 42.941406 -160.28125 L 51.914062 -160.28125 L 51.914062 -151.3125 L 36.601562 -151.3125 C 36.578125 -151.3125 36.558594 -151.3125 36.546875 -151.308594 C 36.546875 -151.308594 36.554688 -151.3125 36.566406 -151.3125 C 36.644531 -151.324219 36.730469 -151.34375 36.832031 -151.375 C 37.183594 -151.480469 37.519531 -151.660156 37.839844 -151.914062 C 38.125 -152.136719 38.355469 -152.398438 38.539062 -152.695312 C 38.640625 -152.859375 38.703125 -152.988281 38.726562 -153.082031 L 30.023438 -155.257812 L 38.84375 -153.621094 L 31.472656 -113.929688 L 5.515625 -109.683594 L 4.066406 -118.539062 L 13.039062 -118.539062 L 13.039062 -106.816406 C 13.039062 -106.769531 13.039062 -106.734375 13.042969 -106.703125 L 13.039062 -106.722656 C 13.019531 -106.835938 12.984375 -106.972656 12.929688 -107.125 C 12.714844 -107.71875 12.355469 -108.25 11.847656 -108.722656 C 11.242188 -109.285156 10.5625 -109.566406 9.808594 -109.566406 L 31.339844 -109.566406 L 31.339844 -32.054688 C 31.339844 -23.832031 33.371094 -17.578125 37.433594 -13.285156 C 41.367188 -9.132812 47.386719 -7.058594 55.5 -7.058594 Z M 55.5 -7.058594 "/></g></g></g><g fill="#7ed957" fill-opacity="1"><g transform="translate(348.449231, 254.908769)"><g><path d="M 85.171875 -61.484375 C 85.171875 -51.753906 83.972656 -42.976562 81.578125 -35.15625 C 79.179688 -27.34375 75.609375 -20.6875 70.859375 -15.1875 C 66.117188 -9.6875 60.203125 -5.460938 53.109375 -2.515625 C 46.015625 0.429688 37.757812 1.90625 28.34375 1.90625 C 24.039062 1.90625 19.816406 1.644531 15.671875 1.125 C 11.523438 0.613281 7.175781 -0.195312 2.625 -1.3125 C 2.863281 -4.5 3.144531 -7.6875 3.46875 -10.875 C 3.789062 -14.070312 4.070312 -17.265625 4.3125 -20.453125 C 4.550781 -22.210938 5.25 -23.628906 6.40625 -24.703125 C 7.5625 -25.773438 9.210938 -26.3125 11.359375 -26.3125 C 12.710938 -26.3125 14.484375 -26.03125 16.671875 -25.46875 C 18.867188 -24.914062 21.644531 -24.640625 25 -24.640625 C 29.539062 -24.640625 33.566406 -25.296875 37.078125 -26.609375 C 40.585938 -27.929688 43.519531 -30.023438 45.875 -32.890625 C 48.226562 -35.765625 50 -39.492188 51.1875 -44.078125 C 52.382812 -48.660156 52.984375 -54.222656 52.984375 -60.765625 L 52.984375 -172.96875 L 85.171875 -172.96875 Z M 85.171875 -61.484375 "/></g></g></g><g fill="#7ed957" fill-opacity="1"><g transform="translate(447.250639, 254.908769)"><g><path d="M 68.90625 -124.640625 C 77.988281 -124.640625 86.257812 -123.164062 93.71875 -120.21875 C 101.175781 -117.269531 107.554688 -113.082031 112.859375 -107.65625 C 118.160156 -102.226562 122.242188 -95.609375 125.109375 -87.796875 C 127.984375 -79.984375 129.421875 -71.253906 129.421875 -61.609375 C 129.421875 -51.878906 127.984375 -43.101562 125.109375 -35.28125 C 122.242188 -27.46875 118.160156 -20.8125 112.859375 -15.3125 C 107.554688 -9.8125 101.175781 -5.582031 93.71875 -2.625 C 86.257812 0.320312 77.988281 1.796875 68.90625 1.796875 C 59.726562 1.796875 51.390625 0.320312 43.890625 -2.625 C 36.398438 -5.582031 30.003906 -9.8125 24.703125 -15.3125 C 19.398438 -20.8125 15.289062 -27.46875 12.375 -35.28125 C 9.46875 -43.101562 8.015625 -51.878906 8.015625 -61.609375 C 8.015625 -71.253906 9.46875 -79.984375 12.375 -87.796875 C 15.289062 -95.609375 19.398438 -102.226562 24.703125 -107.65625 C 30.003906 -113.082031 36.398438 -117.269531 43.890625 -120.21875 C 51.390625 -123.164062 59.726562 -124.640625 68.90625 -124.640625 Z M 68.90625 -20.9375 C 79.101562 -20.9375 86.65625 -24.363281 91.5625 -31.21875 C 96.46875 -38.070312 98.921875 -48.117188 98.921875 -61.359375 C 98.921875 -74.597656 96.46875 -84.6875 91.5625 -91.625 C 86.65625 -98.5625 79.101562 -102.03125 68.90625 -102.03125 C 58.53125 -102.03125 50.847656 -98.539062 45.859375 -91.5625 C 40.878906 -84.582031 38.390625 -74.515625 38.390625 -61.359375 C 38.390625 -48.203125 40.878906 -38.175781 45.859375 -31.28125 C 50.847656 -24.382812 58.53125 -20.9375 68.90625 -20.9375 Z M 68.90625 -20.9375 "/></g></g></g><g fill="#7ed957" fill-opacity="1"><g transform="translate(580.381384, 254.908769)"><g><path d="M 126.078125 -122.734375 L 59.203125 33.734375 C 58.328125 35.804688 57.191406 37.378906 55.796875 38.453125 C 54.398438 39.535156 52.269531 40.078125 49.40625 40.078125 L 27.390625 40.078125 L 50.359375 -9.203125 L 0.71875 -122.734375 L 26.671875 -122.734375 C 28.984375 -122.734375 30.796875 -122.171875 32.109375 -121.046875 C 33.429688 -119.929688 34.410156 -118.65625 35.046875 -117.21875 L 61.125 -53.59375 C 62 -51.4375 62.734375 -49.28125 63.328125 -47.125 C 63.929688 -44.976562 64.515625 -42.785156 65.078125 -40.546875 C 65.785156 -42.785156 66.5 -45 67.21875 -47.1875 C 67.9375 -49.382812 68.738281 -51.554688 69.625 -53.703125 L 94.265625 -117.21875 C 94.898438 -118.820312 95.953125 -120.140625 97.421875 -121.171875 C 98.898438 -122.210938 100.554688 -122.734375 102.390625 -122.734375 Z M 126.078125 -122.734375 "/></g></g></g><g fill="#7ed957" fill-opacity="1"><g transform="translate(700.593772, 254.908769)"><g/></g></g><g fill="#7ed957" fill-opacity="1"><g transform="translate(758.726305, 254.908769)"><g><path d="M 45.21875 -122.734375 L 45.21875 0 L 15.546875 0 L 15.546875 -122.734375 Z M 49.28125 -158.5 C 49.28125 -155.945312 48.757812 -153.550781 47.71875 -151.3125 C 46.6875 -149.082031 45.3125 -147.128906 43.59375 -145.453125 C 41.882812 -143.773438 39.875 -142.4375 37.5625 -141.4375 C 35.25 -140.445312 32.773438 -139.953125 30.140625 -139.953125 C 27.585938 -139.953125 25.175781 -140.445312 22.90625 -141.4375 C 20.632812 -142.4375 18.660156 -143.773438 16.984375 -145.453125 C 15.304688 -147.128906 13.96875 -149.082031 12.96875 -151.3125 C 11.976562 -153.550781 11.484375 -155.945312 11.484375 -158.5 C 11.484375 -161.125 11.976562 -163.59375 12.96875 -165.90625 C 13.96875 -168.21875 15.304688 -170.210938 16.984375 -171.890625 C 18.660156 -173.566406 20.632812 -174.898438 22.90625 -175.890625 C 25.175781 -176.890625 27.585938 -177.390625 30.140625 -177.390625 C 32.773438 -177.390625 35.25 -176.890625 37.5625 -175.890625 C 39.875 -174.898438 41.882812 -173.566406 43.59375 -171.890625 C 45.3125 -170.210938 46.6875 -168.21875 47.71875 -165.90625 C 48.757812 -163.59375 49.28125 -161.125 49.28125 -158.5 Z M 49.28125 -158.5 "/></g></g></g><g fill="#7ed957" fill-opacity="1"><g transform="translate(819.49034, 254.908769)"><g><path d="M 42.21875 -107.65625 C 44.695312 -110.125 47.3125 -112.414062 50.0625 -114.53125 C 52.8125 -116.644531 55.71875 -118.4375 58.78125 -119.90625 C 61.851562 -121.382812 65.144531 -122.539062 68.65625 -123.375 C 72.164062 -124.21875 75.992188 -124.640625 80.140625 -124.640625 C 86.835938 -124.640625 92.773438 -123.503906 97.953125 -121.234375 C 103.140625 -118.960938 107.46875 -115.769531 110.9375 -111.65625 C 114.40625 -107.550781 117.035156 -102.644531 118.828125 -96.9375 C 120.628906 -91.238281 121.53125 -84.960938 121.53125 -78.109375 L 121.53125 0 L 91.984375 0 L 91.984375 -78.109375 C 91.984375 -85.609375 90.269531 -91.410156 86.84375 -95.515625 C 83.414062 -99.617188 78.191406 -101.671875 71.171875 -101.671875 C 66.066406 -101.671875 61.28125 -100.515625 56.8125 -98.203125 C 52.351562 -95.890625 48.128906 -92.738281 44.140625 -88.75 L 44.140625 0 L 14.59375 0 L 14.59375 -122.734375 L 32.65625 -122.734375 C 36.476562 -122.734375 38.988281 -120.9375 40.1875 -117.34375 Z M 42.21875 -107.65625 "/></g></g></g><g fill="#7ed957" fill-opacity="1"><g transform="translate(954.415278, 254.908769)"><g/></g></g><g fill="#7ed957" fill-opacity="1"><g transform="translate(1012.547811, 254.908769)"><g><path d="M 138.03125 -40.796875 C 139.789062 -40.796875 141.347656 -40.113281 142.703125 -38.75 L 155.375 -25 C 148.363281 -16.3125 139.734375 -9.65625 129.484375 -5.03125 C 119.234375 -0.40625 106.929688 1.90625 92.578125 1.90625 C 79.742188 1.90625 68.203125 -0.285156 57.953125 -4.671875 C 47.703125 -9.054688 38.945312 -15.15625 31.6875 -22.96875 C 24.4375 -30.78125 18.875 -40.109375 15 -50.953125 C 11.132812 -61.796875 9.203125 -73.640625 9.203125 -86.484375 C 9.203125 -99.484375 11.273438 -111.382812 15.421875 -122.1875 C 19.578125 -132.988281 25.421875 -142.296875 32.953125 -150.109375 C 40.492188 -157.929688 49.484375 -164.015625 59.921875 -168.359375 C 70.367188 -172.703125 81.9375 -174.875 94.625 -174.875 C 107.21875 -174.875 118.398438 -172.800781 128.171875 -168.65625 C 137.941406 -164.507812 146.253906 -159.085938 153.109375 -152.390625 L 142.34375 -137.4375 C 141.707031 -136.476562 140.890625 -135.640625 139.890625 -134.921875 C 138.890625 -134.210938 137.515625 -133.859375 135.765625 -133.859375 C 134.566406 -133.859375 133.328125 -134.195312 132.046875 -134.875 C 130.773438 -135.550781 129.378906 -136.382812 127.859375 -137.375 C 126.347656 -138.375 124.597656 -139.472656 122.609375 -140.671875 C 120.617188 -141.867188 118.304688 -142.960938 115.671875 -143.953125 C 113.035156 -144.953125 109.984375 -145.789062 106.515625 -146.46875 C 103.046875 -147.144531 99.039062 -147.484375 94.5 -147.484375 C 86.757812 -147.484375 79.679688 -146.109375 73.265625 -143.359375 C 66.847656 -140.609375 61.328125 -136.617188 56.703125 -131.390625 C 52.078125 -126.171875 48.488281 -119.789062 45.9375 -112.25 C 43.382812 -104.71875 42.109375 -96.128906 42.109375 -86.484375 C 42.109375 -76.753906 43.484375 -68.097656 46.234375 -60.515625 C 48.984375 -52.941406 52.707031 -46.5625 57.40625 -41.375 C 62.113281 -36.195312 67.65625 -32.234375 74.03125 -29.484375 C 80.414062 -26.734375 87.28125 -25.359375 94.625 -25.359375 C 99.007812 -25.359375 102.972656 -25.597656 106.515625 -26.078125 C 110.066406 -26.554688 113.335938 -27.3125 116.328125 -28.34375 C 119.316406 -29.382812 122.144531 -30.722656 124.8125 -32.359375 C 127.488281 -33.992188 130.144531 -36.003906 132.78125 -38.390625 C 133.570312 -39.109375 134.40625 -39.6875 135.28125 -40.125 C 136.164062 -40.570312 137.082031 -40.796875 138.03125 -40.796875 Z M 138.03125 -40.796875 "/></g></g></g><g fill="#7ed957" fill-opacity="1"><g transform="translate(1170.797575, 254.908769)"><g><path d="M 44.140625 -109.5625 C 48.921875 -114.03125 54.179688 -117.660156 59.921875 -120.453125 C 65.671875 -123.242188 72.410156 -124.640625 80.140625 -124.640625 C 86.835938 -124.640625 92.773438 -123.503906 97.953125 -121.234375 C 103.140625 -118.960938 107.46875 -115.769531 110.9375 -111.65625 C 114.40625 -107.550781 117.035156 -102.644531 118.828125 -96.9375 C 120.628906 -91.238281 121.53125 -84.960938 121.53125 -78.109375 L 121.53125 0 L 91.984375 0 L 91.984375 -78.109375 C 91.984375 -85.609375 90.269531 -91.410156 86.84375 -95.515625 C 83.414062 -99.617188 78.191406 -101.671875 71.171875 -101.671875 C 66.066406 -101.671875 61.28125 -100.515625 56.8125 -98.203125 C 52.351562 -95.890625 48.128906 -92.738281 44.140625 -88.75 L 44.140625 0 L 14.59375 0 L 14.59375 -177.75 L 44.140625 -177.75 Z M 44.140625 -109.5625 "/></g></g></g><g fill="#7ed957" fill-opacity="1"><g transform="translate(1305.722467, 254.908769)"><g><path d="M 79.421875 -52.390625 C 70.890625 -51.992188 63.710938 -51.253906 57.890625 -50.171875 C 52.066406 -49.097656 47.398438 -47.722656 43.890625 -46.046875 C 40.390625 -44.378906 37.878906 -42.425781 36.359375 -40.1875 C 34.847656 -37.957031 34.09375 -35.523438 34.09375 -32.890625 C 34.09375 -27.710938 35.625 -24.003906 38.6875 -21.765625 C 41.757812 -19.535156 45.769531 -18.421875 50.71875 -18.421875 C 56.78125 -18.421875 62.023438 -19.515625 66.453125 -21.703125 C 70.878906 -23.898438 75.203125 -27.234375 79.421875 -31.703125 Z M 11.71875 -105.625 C 25.832031 -118.539062 42.816406 -125 62.671875 -125 C 69.847656 -125 76.269531 -123.820312 81.9375 -121.46875 C 87.601562 -119.113281 92.390625 -115.84375 96.296875 -111.65625 C 100.203125 -107.46875 103.171875 -102.460938 105.203125 -96.640625 C 107.234375 -90.828125 108.25 -84.453125 108.25 -77.515625 L 108.25 0 L 94.859375 0 C 92.066406 0 89.910156 -0.414062 88.390625 -1.25 C 86.878906 -2.09375 85.6875 -3.789062 84.8125 -6.34375 L 82.171875 -15.1875 C 79.066406 -12.394531 76.035156 -9.941406 73.078125 -7.828125 C 70.128906 -5.722656 67.0625 -3.953125 63.875 -2.515625 C 60.6875 -1.078125 57.273438 0.015625 53.640625 0.765625 C 50.015625 1.523438 46.007812 1.90625 41.625 1.90625 C 36.445312 1.90625 31.660156 1.210938 27.265625 -0.171875 C 22.878906 -1.566406 19.09375 -3.660156 15.90625 -6.453125 C 12.71875 -9.242188 10.242188 -12.710938 8.484375 -16.859375 C 6.734375 -21.015625 5.859375 -25.84375 5.859375 -31.34375 C 5.859375 -34.445312 6.375 -37.535156 7.40625 -40.609375 C 8.445312 -43.679688 10.144531 -46.613281 12.5 -49.40625 C 14.851562 -52.195312 17.898438 -54.828125 21.640625 -57.296875 C 25.390625 -59.765625 29.992188 -61.914062 35.453125 -63.75 C 40.921875 -65.582031 47.285156 -67.078125 54.546875 -68.234375 C 61.804688 -69.390625 70.097656 -70.085938 79.421875 -70.328125 L 79.421875 -77.515625 C 79.421875 -85.722656 77.664062 -91.800781 74.15625 -95.75 C 70.65625 -99.695312 65.59375 -101.671875 58.96875 -101.671875 C 54.1875 -101.671875 50.21875 -101.113281 47.0625 -100 C 43.914062 -98.882812 41.144531 -97.628906 38.75 -96.234375 C 36.363281 -94.835938 34.191406 -93.582031 32.234375 -92.46875 C 30.285156 -91.351562 28.113281 -90.796875 25.71875 -90.796875 C 23.644531 -90.796875 21.890625 -91.332031 20.453125 -92.40625 C 19.015625 -93.476562 17.859375 -94.734375 16.984375 -96.171875 Z M 11.71875 -105.625 "/></g></g></g><g fill="#7ed957" fill-opacity="1"><g transform="translate(1425.456348, 254.908769)"><g><path d="M 55.5 1.90625 C 44.8125 1.90625 36.617188 -1.097656 30.921875 -7.109375 C 25.222656 -13.128906 22.375 -21.445312 22.375 -32.0625 L 22.375 -100.59375 L 9.8125 -100.59375 C 8.21875 -100.59375 6.859375 -101.109375 5.734375 -102.140625 C 4.617188 -103.179688 4.0625 -104.738281 4.0625 -106.8125 L 4.0625 -118.546875 L 23.796875 -121.765625 L 30.03125 -155.265625 C 30.425781 -156.859375 31.179688 -158.09375 32.296875 -158.96875 C 33.410156 -159.84375 34.847656 -160.28125 36.609375 -160.28125 L 51.90625 -160.28125 L 51.90625 -121.65625 L 84.6875 -121.65625 L 84.6875 -100.59375 L 51.90625 -100.59375 L 51.90625 -34.09375 C 51.90625 -30.257812 52.84375 -27.265625 54.71875 -25.109375 C 56.59375 -22.960938 59.164062 -21.890625 62.4375 -21.890625 C 64.269531 -21.890625 65.804688 -22.109375 67.046875 -22.546875 C 68.285156 -22.984375 69.363281 -23.441406 70.28125 -23.921875 C 71.195312 -24.398438 72.007812 -24.859375 72.71875 -25.296875 C 73.4375 -25.734375 74.15625 -25.953125 74.875 -25.953125 C 75.757812 -25.953125 76.476562 -25.734375 77.03125 -25.296875 C 77.59375 -24.859375 78.191406 -24.203125 78.828125 -23.328125 L 87.671875 -8.96875 C 83.367188 -5.382812 78.425781 -2.675781 72.84375 -0.84375 C 67.257812 0.988281 61.476562 1.90625 55.5 1.90625 Z M 55.5 1.90625 "/></g></g></g><g clip-path="url(#5d9520d561)"><path fill="#10bb82" d="M 160.699219 31.898438 C 231.171875 31.898438 288.300781 89.027344 288.300781 159.5 C 288.300781 179.726562 283.605469 198.8125 275.261719 215.769531 C 272.964844 220.433594 272.132812 225.882812 273.242188 231.296875 L 283.855469 283.007812 L 230.058594 272.941406 C 224.898438 271.976562 219.734375 272.765625 215.269531 274.882812 C 198.742188 282.710938 180.257812 287.101562 160.699219 287.101562 C 90.230469 287.101562 33.101562 229.972656 33.101562 159.5 C 33.101562 89.027344 90.230469 31.898438 160.699219 31.898438 Z M 320.199219 159.5 C 320.199219 71.410156 248.789062 0 160.699219 0 C 72.609375 0 1.199219 71.410156 1.199219 159.5 C 1.199219 247.589844 72.609375 319 160.699219 319 C 184.195312 319 206.539062 313.910156 226.664062 304.761719 L 289.652344 316.546875 C 306.359375 319.671875 320.90625 304.867188 317.488281 288.21875 L 305.023438 227.484375 C 314.761719 206.839844 320.199219 183.785156 320.199219 159.5 Z M 320.199219 159.5 " fill-opacity="1" fill-rule="evenodd"/></g><path fill="#10bb82" d="M 49.050781 159.5 C 49.050781 141.882812 63.332031 127.601562 80.949219 127.601562 C 98.566406 127.601562 112.851562 141.882812 112.851562 159.5 C 112.851562 177.117188 98.566406 191.402344 80.949219 191.402344 C 63.332031 191.402344 49.050781 177.117188 49.050781 159.5 Z M 49.050781 159.5 " fill-opacity="1" fill-rule="evenodd"/><path fill="#10bb82" d="M 128.800781 159.5 C 128.800781 141.882812 143.082031 127.601562 160.699219 127.601562 C 178.320312 127.601562 192.601562 141.882812 192.601562 159.5 C 192.601562 177.117188 178.320312 191.402344 160.699219 191.402344 C 143.082031 191.402344 128.800781 177.117188 128.800781 159.5 Z M 128.800781 159.5 " fill-opacity="1" fill-rule="evenodd"/><path fill="#10bb82" d="M 208.550781 159.5 C 208.550781 141.882812 222.832031 127.601562 240.449219 127.601562 C 258.070312 127.601562 272.351562 141.882812 272.351562 159.5 C 272.351562 177.117188 258.070312 191.402344 240.449219 191.402344 C 222.832031 191.402344 208.550781 177.117188 208.550781 159.5 Z M 208.550781 159.5 " fill-opacity="1" fill-rule="evenodd"/><g clip-path="url(#a11199fce0)"><path fill="#7ed957" d="M 160.699219 41.808594 C 225.699219 41.808594 278.390625 94.5 278.390625 159.5 C 278.390625 178.15625 274.0625 195.761719 266.363281 211.398438 C 264.246094 215.703125 263.480469 220.730469 264.503906 225.722656 L 274.292969 273.417969 L 224.671875 264.132812 C 219.914062 263.242188 215.148438 263.96875 211.03125 265.921875 C 195.789062 273.144531 178.738281 277.191406 160.699219 277.191406 C 95.699219 277.191406 43.007812 224.5 43.007812 159.5 C 43.007812 94.5 95.699219 41.808594 160.699219 41.808594 Z M 307.816406 159.5 C 307.816406 78.25 241.949219 12.382812 160.699219 12.382812 C 79.449219 12.382812 13.582031 78.25 13.582031 159.5 C 13.582031 240.75 79.449219 306.613281 160.699219 306.613281 C 182.371094 306.613281 202.980469 301.921875 221.539062 293.480469 L 279.640625 304.351562 C 295.046875 307.234375 308.464844 293.582031 305.3125 278.222656 L 293.816406 222.203125 C 302.800781 203.164062 307.816406 181.898438 307.816406 159.5 Z M 307.816406 159.5 " fill-opacity="1" fill-rule="evenodd"/></g><path fill="#7ed957" d="M 57.71875 159.5 C 57.71875 143.25 70.890625 130.074219 87.140625 130.074219 C 103.390625 130.074219 116.566406 143.25 116.566406 159.5 C 116.566406 175.75 103.390625 188.921875 87.140625 188.921875 C 70.890625 188.921875 57.71875 175.75 57.71875 159.5 Z M 57.71875 159.5 " fill-opacity="1" fill-rule="evenodd"/><path fill="#7ed957" d="M 131.277344 159.5 C 131.277344 143.25 144.449219 130.074219 160.699219 130.074219 C 176.949219 130.074219 190.121094 143.25 190.121094 159.5 C 190.121094 175.75 176.949219 188.921875 160.699219 188.921875 C 144.449219 188.921875 131.277344 175.75 131.277344 159.5 Z M 131.277344 159.5 " fill-opacity="1" fill-rule="evenodd"/><path fill="#7ed957" d="M 204.832031 159.5 C 204.832031 143.25 218.007812 130.074219 234.257812 130.074219 C 250.507812 130.074219 263.679688 143.25 263.679688 159.5 C 263.679688 175.75 250.507812 188.921875 234.257812 188.921875 C 218.007812 188.921875 204.832031 175.75 204.832031 159.5 Z M 204.832031 159.5 " fill-opacity="1" fill-rule="evenodd"/></svg>